<svg width="176" height="78" viewBox="0 0 176 78" fill="none" xmlns="http://www.w3.org/2000/svg">
<path id="Union" fill-rule="evenodd" clip-rule="evenodd" d="M30.4869 22.4135V22.4135L30.4869 22.4008C30.4875 21.0339 30.4882 19.6671 30.4882 18.3005C30.4882 17.2083 30.4878 16.1161 30.4874 15.0241L30.4874 15.0089V15.0085C30.4858 10.622 30.4842 6.23742 30.5081 1.85601C30.5087 1.72297 30.4964 1.57879 30.4839 1.43136V1.43133C30.436 0.867083 30.384 0.255329 31.0279 0.0393884C31.5537 -0.137875 31.9097 0.316717 32.2362 0.733752C32.3193 0.839922 32.4005 0.943658 32.4822 1.03391C37.0225 6.07646 41.4103 11.2439 45.186 16.8987C50.6533 25.0897 55.3511 33.5981 56.2481 43.6856C56.9303 51.3394 55.1012 58.1911 50.2585 64.2856C46.9976 68.3886 42.9396 71.4196 38.5742 74.0883C36.7576 75.1978 33.6441 76.7071 31.6776 77.5192C30.7405 77.9065 30.4707 77.9565 30.4157 76.1448C30.3457 73.831 30.3757 72.0768 30.4757 69.9753C30.6406 66.5545 31.2603 64.2931 33.6666 62.0742C36.8102 59.1735 39.8056 56.1126 42.8012 53.0516C43.9035 51.9251 45.0058 50.7987 46.1155 49.6802C47.205 48.5833 47.325 47.3788 46.2205 46.2169C45.1735 45.115 43.7567 45.1974 42.6023 46.3568C41.7849 47.1776 40.9686 47.9994 40.152 48.8215C39.7428 49.2335 39.3336 49.6455 38.924 50.0575C38.3731 50.6118 37.823 51.167 37.2728 51.7224C35.7221 53.2876 34.1711 54.8532 32.5996 56.397C32.5045 56.49 32.4048 56.6042 32.301 56.7232C31.8946 57.1889 31.4239 57.7282 30.9105 57.364C30.4527 57.0387 30.4708 56.4634 30.4878 55.9232L30.4878 55.923C30.492 55.791 30.4961 55.6611 30.4932 55.5374C30.4653 54.2877 30.4558 53.038 30.4464 51.7885V51.7883C30.4346 50.2347 30.4228 48.6815 30.3757 47.129C30.3232 45.3348 30.838 43.928 32.2123 42.6436C35.5807 39.4902 38.8666 36.2718 42.0075 32.8934C42.5048 32.3587 42.9121 31.769 42.8421 30.9269C42.7672 30.0398 42.3574 29.3476 41.5378 29.0353C40.1138 28.4939 39.3894 29.2148 38.0842 30.5134C37.6784 30.9171 37.2166 31.3766 36.6601 31.8714C35.7757 32.6573 35.262 33.1824 34.8112 33.643C34.2559 34.2106 33.7963 34.6804 32.857 35.4197C32.771 35.4871 32.6729 35.5676 32.5673 35.6542L32.5661 35.6552L32.566 35.6553C32.0576 36.0721 31.3748 36.6321 31.0254 36.5866C30.3646 36.5013 30.4224 35.8046 30.4729 35.1947C30.486 35.0366 30.4987 34.8843 30.4981 34.75C30.4832 30.6385 30.485 26.5257 30.4869 22.4135ZM77.8272 13.7178C76.4228 12.4983 74.9136 11.7937 72.8246 11.7937C68.6891 11.7937 65.3582 15.1246 65.3582 19.2601C65.3582 23.3955 68.6866 26.6839 72.8221 26.6839C74.6637 26.6839 76.4403 26.0418 77.8471 24.6774C77.9921 24.535 78.0321 24.2651 77.8671 24.1202L76.9151 23.1906C76.7902 23.0857 76.6028 23.0657 76.4178 23.2106C75.4258 23.9753 74.3713 24.575 72.8621 24.575C69.906 24.575 67.6521 22.1137 67.6521 19.2201C67.6521 16.324 69.886 13.8427 72.8421 13.8427C74.124 13.8427 75.4483 14.3799 76.4203 15.227C76.6053 15.4119 76.7927 15.4119 76.9376 15.227L77.8471 14.2975C78.0146 14.1325 78.0146 13.8827 77.8272 13.7178ZM81.1985 12.001C80.9711 12.001 80.8062 12.1859 80.8062 12.3933H80.8036V26.0791C80.8036 26.2865 80.9686 26.4715 81.196 26.4715H88.5574C88.7848 26.4715 88.9497 26.2865 88.9497 26.0791V24.9422C88.9497 24.7348 88.7848 24.5499 88.5574 24.5499H82.9551V12.3933C82.9551 12.1884 82.7702 12.001 82.5628 12.001H81.1985ZM91.1262 12.3933C91.1262 12.1859 91.3111 12.001 91.5185 12.001H92.8829C93.0903 12.001 93.2752 12.1884 93.2752 12.3933V26.0816C93.2752 26.289 93.0903 26.474 92.8829 26.474H91.5185C91.3111 26.474 91.1262 26.289 91.1262 26.0816V12.3933ZM97.6784 11.7937C97.471 11.7937 97.2861 11.9586 97.2861 12.166V26.0817C97.2861 26.2891 97.471 26.474 97.6784 26.474H98.9803C99.2077 26.474 99.3726 26.2891 99.3726 26.0817V16.0116H99.3926L108.368 26.6814H108.905C109.113 26.6814 109.3 26.5165 109.3 26.3091V12.3934C109.3 12.1885 109.113 12.0011 108.905 12.0011H107.581C107.356 12.0011 107.189 12.186 107.189 12.3934V22.1736H107.169L98.1957 11.7937H97.6784ZM113.313 12.3933C113.313 12.1859 113.497 12.001 113.705 12.001H115.069C115.277 12.001 115.462 12.1884 115.462 12.3933V26.0816C115.462 26.289 115.277 26.474 115.069 26.474H113.705C113.497 26.474 113.313 26.289 113.313 26.0816V12.3933ZM130.887 13.7178C129.48 12.4983 127.971 11.7937 125.882 11.7937C121.746 11.7937 118.418 15.1246 118.418 19.2601C118.418 23.3955 121.746 26.6839 125.882 26.6839C127.723 26.6839 129.5 26.0418 130.907 24.6774C131.052 24.535 131.092 24.2651 130.927 24.1202L129.975 23.1906C129.85 23.0857 129.662 23.0657 129.478 23.2106C128.485 23.9753 127.431 24.575 125.922 24.575C122.966 24.575 120.712 22.1137 120.712 19.2201C120.712 16.324 122.946 13.8427 125.902 13.8427C127.186 13.8427 128.508 14.3799 129.48 15.227C129.665 15.4119 129.852 15.4119 129.997 15.227L130.907 14.2975C131.072 14.1325 131.072 13.8827 130.887 13.7178ZM131.919 25.9368L138.266 12.0211C138.328 11.8961 138.516 11.7937 138.618 11.7937H138.826C138.928 11.7937 139.115 11.8961 139.175 12.0211L145.482 25.9368C145.607 26.2042 145.442 26.474 145.133 26.474H143.828C143.581 26.474 143.436 26.3491 143.353 26.1642L142.072 23.3306H135.31C135.102 23.8065 134.891 24.2768 134.679 24.7472L134.678 24.7487C134.467 25.2187 134.255 25.6886 134.048 26.1642C133.985 26.3091 133.821 26.474 133.573 26.474H132.271C131.961 26.474 131.797 26.2042 131.919 25.9368ZM141.287 21.5514L138.743 15.8867H138.641L136.119 21.5514H141.287ZM66.8081 32.1688C66.5807 32.1688 66.4158 32.3537 66.4158 32.5611H66.4133V46.2469C66.4133 46.4543 66.5782 46.6392 66.8056 46.6392H74.167C74.3944 46.6392 74.5593 46.4543 74.5593 46.2469V45.11C74.5593 44.9026 74.3944 44.7177 74.167 44.7177H68.5647V32.5611C68.5647 32.3562 68.3798 32.1688 68.1724 32.1688H66.8081ZM82.9577 31.9615C87.0932 31.9615 90.4016 35.2898 90.4016 39.4253C90.4016 43.5608 87.0932 46.8492 82.9577 46.8492C78.8222 46.8492 75.5338 43.5608 75.5338 39.4253C75.5338 35.2898 78.8222 31.9615 82.9577 31.9615ZM82.9577 44.7802C85.9138 44.7802 88.3351 42.3814 88.3351 39.4253C88.3351 36.4893 85.9163 34.028 82.9577 34.028C80.0217 34.028 77.6028 36.4893 77.6028 39.4253C77.6028 42.3814 80.0217 44.7802 82.9577 44.7802ZM92.6915 44.1363C92.605 44.2783 92.5185 44.4203 92.4278 44.5528C92.2204 44.9051 92.3653 45.05 92.5552 45.2199C92.885 45.5298 94.4793 46.8541 97.0005 46.8541C99.6867 46.8541 101.611 45.095 101.611 42.946C101.611 40.4223 99.5643 39.2853 97.1654 38.3133C95.4488 37.6087 94.5392 36.8865 94.5392 35.7071C94.5392 34.9425 95.1389 33.8455 96.8756 33.8455C97.9743 33.8455 99.2805 34.6443 99.6036 34.8419L99.635 34.861L99.654 34.8725L99.6667 34.88C99.9541 35.0649 100.224 34.9424 100.389 34.6726C100.471 34.5493 100.559 34.4154 100.647 34.2815L100.647 34.2803L100.648 34.2799C100.736 34.1457 100.824 34.0116 100.906 33.888C101.111 33.5756 100.946 33.2858 100.781 33.1833C100.574 33.0384 99.022 31.9639 96.9556 31.9639C93.6697 31.9639 92.4278 34.1778 92.4278 35.7895C92.4278 38.1884 94.082 39.2828 96.1909 40.1724C98.2399 41.0195 99.3144 41.8041 99.3144 43.046C99.3144 44.098 98.4048 44.9676 96.978 44.9676C95.4061 44.9676 93.8343 43.676 93.675 43.5452L93.6696 43.5408C93.4398 43.3534 93.1524 43.4358 92.965 43.7057C92.871 43.8415 92.7816 43.9884 92.6921 44.1354L92.6919 44.1357L92.6918 44.1359L92.6917 44.1359L92.6917 44.136L92.6915 44.1363ZM68.3997 54.28H65.0288C64.8015 54.28 64.6365 54.0951 64.6365 53.8877V52.7308C64.6365 52.5234 64.8015 52.3385 65.0288 52.3385H73.9195C74.1469 52.3385 74.3118 52.5259 74.3118 52.7308V53.8877C74.3118 54.0951 74.1469 54.28 73.9195 54.28H70.5487V66.4166C70.5487 66.624 70.3638 66.8089 70.1563 66.8089H68.792C68.5846 66.8089 68.3997 66.624 68.3997 66.4166V54.28ZM76.9408 52.3365C76.7134 52.3365 76.5485 52.5215 76.5485 52.7288V66.4197C76.5485 66.6271 76.7134 66.812 76.9408 66.812H78.2851C78.49 66.812 78.6775 66.6271 78.6775 66.4197V61.1473H81.7984L84.5496 66.6271C84.5921 66.7095 84.717 66.812 84.8819 66.812H86.4936C86.846 66.812 86.9909 66.4821 86.846 66.2123L84.0124 60.9598C85.8115 60.2352 87.0734 58.6634 87.0734 56.7619C87.0734 54.3006 85.0468 52.3365 82.5656 52.3365H76.9408ZM84.9194 56.8019C84.9194 58.2287 83.7425 59.3656 82.3981 59.3656H78.7174V54.3405H82.3981C83.74 54.3405 84.9194 55.4575 84.9194 56.8019ZM88.3521 66.2723L94.699 52.3566C94.7615 52.2317 94.9464 52.1292 95.0514 52.1292H95.2588C95.3612 52.1292 95.5486 52.2317 95.6111 52.3566L101.918 66.2723C102.043 66.5397 101.876 66.8096 101.566 66.8096H100.264C100.016 66.8096 99.8715 66.6846 99.789 66.4997L98.5072 63.6661H91.7455C91.5384 64.1413 91.327 64.611 91.1156 65.0806L91.1149 65.0821L91.1145 65.0829C90.9027 65.5533 90.691 66.0237 90.4836 66.4997C90.4211 66.6447 90.2562 66.8096 90.0088 66.8096H88.7069C88.3946 66.8096 88.2297 66.5397 88.3521 66.2723ZM97.7201 61.8895L95.1763 56.2247H95.0738L92.5501 61.8895H97.7201ZM104.377 52.3365C104.15 52.3365 103.985 52.5215 103.985 52.7288V66.4197C103.985 66.6271 104.15 66.812 104.377 66.812H105.722C105.929 66.812 106.114 66.6271 106.114 66.4197V61.5595H109.113C111.636 61.5595 113.723 59.4706 113.723 56.9068C113.723 54.4055 111.636 52.3365 109.093 52.3365H104.377ZM111.594 56.8843C111.594 58.3736 110.395 59.5305 108.968 59.5305H106.114V54.403H108.968C110.395 54.403 111.594 55.4775 111.594 56.8843ZM116.266 52.7288C116.266 52.5215 116.433 52.3365 116.658 52.3365H124.929C125.157 52.3365 125.322 52.5239 125.322 52.7288V53.8858C125.322 54.0932 125.157 54.2781 124.929 54.2781H118.395V58.496H123.915C124.122 58.496 124.307 58.6834 124.307 58.8883V60.0453C124.307 60.2727 124.122 60.4376 123.915 60.4376H118.395V64.8829H124.929C125.157 64.8829 125.322 65.0678 125.322 65.2752V66.4122C125.322 66.6196 125.157 66.8045 124.929 66.8045H116.658C116.431 66.8045 116.266 66.6196 116.266 66.4122V52.7288ZM128.838 52.1292C128.63 52.1292 128.446 52.2941 128.446 52.5015V66.4173C128.446 66.6247 128.63 66.8096 128.838 66.8096H130.142C130.367 66.8096 130.535 66.6247 130.535 66.4173V56.3472H130.555L139.528 67.017H140.065C140.272 67.017 140.457 66.8521 140.457 66.6447V52.7289C140.457 52.524 140.272 52.3366 140.065 52.3366H138.741C138.513 52.3366 138.348 52.5215 138.348 52.7289V62.5092H138.328L129.355 52.1292H128.838ZM143.813 64.2911L143.813 64.291C143.9 64.1479 143.987 64.0052 144.078 63.873C144.263 63.6031 144.553 63.5206 144.781 63.708L144.786 63.7124C144.945 63.8432 146.517 65.1348 148.089 65.1348C149.516 65.1348 150.425 64.2653 150.425 63.2133C150.425 61.9714 149.348 61.1868 147.302 60.3397C145.193 59.4501 143.539 58.3556 143.539 55.9568C143.539 54.3451 144.78 52.1312 148.066 52.1312C150.135 52.1312 151.685 53.2057 151.892 53.3506C152.059 53.453 152.224 53.7429 152.017 54.0552C151.947 54.1599 151.874 54.2722 151.8 54.3857L151.798 54.3881L151.797 54.3904L151.796 54.3915L151.796 54.3918C151.696 54.5445 151.595 54.699 151.5 54.8398C151.335 55.1097 151.065 55.2322 150.775 55.0473L150.758 55.0373L150.744 55.029L150.712 55.0091C150.389 54.8116 149.083 54.0128 147.984 54.0128C146.247 54.0128 145.648 55.1097 145.648 55.8743C145.648 57.0538 146.557 57.7759 148.274 58.4806C150.673 59.4526 152.719 60.5896 152.719 63.1133C152.719 65.2623 150.798 67.0214 148.109 67.0214C145.585 67.0214 143.993 65.6971 143.664 65.3872C143.479 65.2173 143.334 65.0724 143.541 64.72C143.636 64.5837 143.725 64.4372 143.813 64.2911ZM155.967 52.3365C155.742 52.3365 155.575 52.5215 155.575 52.7288V66.4122C155.575 66.6196 155.74 66.8045 155.967 66.8045H164.238C164.465 66.8045 164.63 66.6196 164.63 66.4122V65.2752C164.63 65.0678 164.465 64.8829 164.238 64.8829H157.704V60.4376H163.224C163.431 60.4376 163.616 60.2727 163.616 60.0453V58.8883C163.616 58.6834 163.431 58.496 163.224 58.496H157.704V54.2781H164.238C164.465 54.2781 164.63 54.0932 164.63 53.8858V52.7288C164.63 52.5239 164.465 52.3365 164.238 52.3365H155.967ZM166.822 64.72C166.917 64.5837 167.006 64.4371 167.095 64.2909C167.181 64.1479 167.268 64.0052 167.36 63.873C167.544 63.6031 167.834 63.5206 168.062 63.708L168.067 63.7124C168.226 63.8432 169.798 65.1348 171.37 65.1348C172.797 65.1348 173.706 64.2653 173.706 63.2133C173.706 61.9714 172.629 61.1868 170.583 60.3397C168.474 59.4501 166.82 58.3556 166.82 55.9568C166.82 54.3451 168.062 52.1312 171.348 52.1312C173.417 52.1312 174.966 53.2057 175.173 53.3506C175.341 53.453 175.506 53.7429 175.298 54.0552C175.227 54.1615 175.153 54.2756 175.078 54.3908L175.077 54.3919C174.977 54.5445 174.876 54.6991 174.781 54.8398C174.616 55.1097 174.346 55.2322 174.056 55.0473C174.044 55.0403 174.023 55.0273 173.993 55.0091C173.67 54.8116 172.364 54.0128 171.265 54.0128C169.528 54.0128 168.929 55.1097 168.929 55.8743C168.929 57.0538 169.838 57.7759 171.555 58.4806C173.954 59.4526 176 60.5896 176 63.1133C176 65.2623 174.079 67.0214 171.39 67.0214C168.866 67.0214 167.275 65.6971 166.945 65.3872C166.762 65.2173 166.615 65.0724 166.822 64.72ZM91.229 9.88446C91.1466 9.72204 91.229 9.55712 91.3515 9.49715L94.415 7.78049C94.5374 7.69803 94.8448 7.65805 94.9472 7.84296L95.3146 8.5776C95.397 8.74252 95.3545 8.94491 95.1921 9.00738L91.9037 10.3767C91.6163 10.4992 91.5139 10.4992 91.4339 10.3367L91.229 9.88446ZM25.899 22.4118C25.8983 21.0413 25.8977 19.6708 25.8977 18.3005C25.8971 16.9295 25.8972 15.5587 25.8974 14.1881C25.8979 10.0753 25.8983 5.96423 25.8777 1.85601C25.8772 1.72296 25.8894 1.57876 25.902 1.43132C25.9499 0.867079 26.0018 0.255328 25.358 0.0393884C24.8321 -0.137876 24.4762 0.316721 24.1497 0.733758C24.0665 0.839926 23.9853 0.94366 23.9037 1.03391C19.3634 6.07646 14.9755 11.2439 11.1999 16.8987C5.73252 25.0897 1.03481 33.5981 0.137745 43.6856C-0.544422 51.3394 1.28469 58.1911 6.12733 64.2856C9.38824 68.3886 13.4463 71.4196 17.8116 74.0883C19.6283 75.1978 22.7417 76.7071 24.7083 77.5192C25.6453 77.9065 25.9152 77.9565 25.9702 76.1448C26.0401 73.831 26.0101 72.0768 25.9102 69.9753C25.7453 66.5545 25.1256 64.2931 22.7193 62.0742C19.5756 59.1735 16.5802 56.1126 13.5847 53.0515C12.4824 51.9251 11.38 50.7987 10.2703 49.6802C9.18084 48.5833 9.0609 47.3788 10.1654 46.2169C11.2124 45.115 12.6292 45.1974 13.7836 46.3568C14.601 47.1776 15.4173 47.9995 16.234 48.8217C16.6431 49.2336 17.0523 49.6456 17.4618 50.0575C18.0128 50.6118 18.5629 51.167 19.113 51.7223C20.6637 53.2876 22.2148 54.8532 23.7862 56.397C23.8813 56.49 23.981 56.6042 24.0849 56.7232C24.4913 57.1889 24.962 57.7282 25.4754 57.364C25.9332 57.0387 25.915 56.4634 25.898 55.9232C25.8939 55.7911 25.8898 55.6611 25.8927 55.5374C25.9205 54.2877 25.93 53.038 25.9395 51.7885C25.9513 50.2348 25.9631 48.6815 26.0101 47.129C26.0626 45.3348 25.5479 43.928 24.1735 42.6436C20.8052 39.4902 17.5193 36.2718 14.3783 32.8934C13.8811 32.3587 13.4738 31.769 13.5437 30.9269C13.6187 30.0398 14.0285 29.3476 14.8481 29.0353C16.272 28.4939 16.9965 29.2148 18.3017 30.5134C18.7074 30.9171 19.1693 31.3766 19.7257 31.8714C20.6101 32.6573 21.1239 33.1824 21.5746 33.643C22.1299 34.2106 22.5896 34.6804 23.5289 35.4197C23.6152 35.4874 23.7137 35.5682 23.8198 35.6553C24.3283 36.0721 25.0111 36.6321 25.3605 36.5866C26.0212 36.5013 25.9635 35.8046 25.9129 35.1947C25.8998 35.0366 25.8872 34.8843 25.8877 34.75C25.9027 30.638 25.9008 26.5245 25.899 22.4118Z" fill="white"/>
</svg>
