<svg width="226" height="57" viewBox="0 0 226 57" fill="none" xmlns="http://www.w3.org/2000/svg">
<path id="Gregorio" fill-rule="evenodd" clip-rule="evenodd" d="M113.842 12.5789C113.664 13.0588 113.486 13.5386 113.308 14.0185L113.308 14.0188L113.308 14.0192L113.308 14.0196L113.307 14.0199L113.307 14.0203L113.307 14.0207L113.307 14.021C112.951 14.9787 112.596 15.9363 112.243 16.894C111.785 18.1356 111.328 19.378 110.871 20.6205L110.87 20.6238L110.868 20.6284L110.866 20.6342L110.863 20.6413L110.86 20.6498L110.857 20.6595L110.856 20.6613L110.856 20.6627L110.855 20.6641L110.855 20.6654L110.854 20.6668L110.854 20.6681L110.853 20.6695C110.065 22.8135 109.277 24.9577 108.48 27.0982C106.969 31.1577 105.445 35.211 103.916 39.2643C103.72 39.7816 103.506 40.2958 103.244 40.7784C102.966 41.2862 102.651 41.3398 102.193 41.0055C101.673 40.6269 101.455 40.1065 101.632 39.4819C101.837 38.7564 102.061 38.0341 102.323 37.3244C104.266 32.0567 106.215 26.789 108.174 21.5277C109.365 18.332 110.567 15.1381 111.768 11.9447L111.771 11.9372L111.774 11.9298L111.777 11.9224L111.779 11.915C112.153 10.923 112.526 9.93091 112.899 8.93886C112.91 8.90982 112.921 8.88055 112.931 8.85118C112.999 8.66676 113.068 8.47842 113.177 8.32061C113.262 8.20225 113.397 8.11747 113.528 8.03545L113.528 8.0353C113.557 8.01683 113.587 7.99849 113.615 7.97994C113.643 7.96313 113.686 7.96557 113.727 7.96789C113.77 7.97036 113.812 7.9727 113.83 7.95156C114.139 7.60143 114.492 7.49733 114.893 7.76229C115.353 8.06826 115.672 8.47202 115.694 9.05872C115.702 9.27049 115.714 9.4818 115.726 9.69299L115.726 9.69322V9.6933V9.69336V9.69343V9.6935V9.69356V9.69363V9.69369C115.746 10.0359 115.766 10.3779 115.769 10.721C115.842 17.304 115.908 23.8839 115.974 30.467C115.978 30.8702 115.973 31.2735 115.968 31.6765V31.6773V31.678V31.6787V31.6795V31.6802V31.681V31.6817C115.96 32.311 115.953 32.9399 115.978 33.5676C115.997 34.0504 116.103 34.5332 116.208 35.0116C116.222 35.074 116.235 35.1362 116.249 35.1984C116.271 35.2968 116.346 35.3833 116.438 35.4898C116.487 35.5471 116.542 35.6102 116.596 35.6842C116.718 35.5277 116.837 35.3781 116.953 35.2323L116.953 35.2319L116.953 35.2316C117.195 34.9281 117.424 34.6407 117.637 34.3404C118.584 33.0016 119.532 31.6636 120.48 30.3256C123.218 26.4622 125.956 22.5985 128.664 18.714C130.046 16.7308 131.4 14.7277 132.754 12.7245C133.926 10.9904 135.098 9.25636 136.288 7.53519C137.856 5.26725 139.629 3.17278 141.786 1.43161C142.297 1.02155 142.83 0.639876 143.37 0.267669C143.915 -0.107693 144.038 -0.0887665 144.571 0.327601C145.47 1.02786 145.732 2.00885 145.723 3.07816C145.716 3.65224 145.65 4.23895 145.524 4.80042C144.951 7.34787 144.366 9.8927 143.782 12.4374C143.459 13.844 143.136 15.2505 142.814 16.6574C142.441 18.2958 142.069 19.9351 141.698 21.5744L141.697 21.5806L141.696 21.5868L141.694 21.5929L141.694 21.5944L141.693 21.5958L141.693 21.5972L141.693 21.5987L141.693 21.6001L141.692 21.6016L141.692 21.603C141.076 24.3254 140.459 27.0479 139.83 29.7667C138.928 33.6686 137.998 37.561 137.064 41.4565C136.708 42.9485 136.336 44.4405 135.916 45.9199C135.774 46.4272 135.575 46.9211 135.379 47.4089C135.288 47.6339 135.198 47.8575 135.115 48.0806C134.392 47.9544 134.222 47.803 134.273 47.21L134.293 46.9613C134.361 46.1403 134.429 45.3123 134.607 44.513C135.32 41.2925 136.074 38.0814 136.834 34.8703C137.594 31.6624 138.376 28.4577 139.162 25.256C139.458 24.0434 139.763 22.8328 140.068 21.6225C140.291 20.733 140.515 19.8437 140.736 18.9538C141.079 17.566 141.42 16.1776 141.762 14.7891L141.763 14.7859L141.763 14.783L141.764 14.7801L141.765 14.7777C142.21 12.9668 142.655 11.1558 143.105 9.34575C143.288 8.6072 143.478 7.87046 143.667 7.13395L143.668 7.13294L143.668 7.13185L143.668 7.13064L143.669 7.12935L143.669 7.12809L143.669 7.12763C143.912 6.18336 144.155 5.23945 144.385 4.29256L144.418 4.1557C144.633 3.273 144.85 2.38092 144.562 1.46316C144.543 1.40139 144.516 1.33961 144.478 1.24966L144.478 1.24896L144.478 1.24873L144.477 1.24681C144.459 1.20423 144.438 1.15535 144.414 1.09725C144.347 1.13168 144.283 1.16413 144.22 1.19579C144.058 1.27723 143.907 1.35338 143.764 1.44424C141.496 2.86683 139.622 4.7247 137.913 6.75922C135.771 9.31105 133.888 12.0584 132.033 14.8185C128.553 19.9935 125.097 25.1858 121.641 30.3789L121.632 30.3923L121.628 30.3988C120.663 31.8495 119.697 33.3001 118.731 34.7505C118.356 35.3151 117.996 35.8987 117.675 36.498C117.492 36.8418 117.265 36.8954 116.93 36.7976C116.293 36.6115 115.826 36.2015 115.454 35.6747C114.896 34.8924 114.643 33.9934 114.59 33.0535C114.476 31.0663 114.369 29.0759 114.318 27.0855C114.228 23.5936 114.157 20.1 114.085 16.6059L114.085 16.5982L114.085 16.5931L114.085 16.5879L114.085 16.5828L114.085 16.5774L114.084 16.5718L114.084 16.5662L114.084 16.5605C114.059 15.3038 114.033 14.047 114.006 12.7902C114.006 12.744 113.992 12.6977 113.978 12.6515C113.971 12.6283 113.964 12.6052 113.959 12.5821C113.918 12.5821 113.88 12.5821 113.842 12.5789ZM56.8983 23.9622C56.4346 23.6815 55.933 23.5459 55.4 23.5017C53.9742 23.3818 52.58 23.5648 51.2205 23.9812C49.8767 24.3942 48.535 24.816 47.1934 25.2378C45.7482 25.6921 44.303 26.1464 42.8553 26.5898C39.149 27.7253 35.4364 28.8482 31.7206 29.9585L30.9607 30.1852C28.5585 30.9019 26.1571 31.6184 23.7403 32.2833L23.385 32.3813L23.385 32.3813L23.3849 32.3813L23.3848 32.3813L23.3848 32.3813L23.3847 32.3813L23.3847 32.3814L23.3846 32.3814C20.6894 33.1253 17.9911 33.8701 15.2205 34.3052C15.054 34.3316 14.8884 34.3645 14.7218 34.3977C14.3707 34.4675 14.0146 34.5384 13.6339 34.5512C13.6519 34.5372 13.6693 34.5215 13.6868 34.5058L13.6868 34.5058L13.6869 34.5057L13.687 34.5057L13.6871 34.5056C13.7245 34.472 13.7623 34.4381 13.8074 34.4187C18.0531 32.482 22.4722 31.0152 26.9103 29.599C30.9888 28.2994 35.0705 27.0124 39.1616 25.7507C42.164 24.825 45.1758 23.9297 48.1868 23.0346L49.6497 22.5996C51.1606 22.1485 52.703 21.9277 54.2802 22.057C55.4662 22.1517 56.5355 22.5806 57.4787 23.2998C58.0874 23.7635 58.1316 24.2114 57.6584 24.8675C56.8036 26.0472 55.6965 26.9588 54.4884 27.7505C48.9053 31.4158 43.2591 34.9739 37.329 38.0651C31.8973 40.8977 26.3867 43.5504 20.6333 45.6796C17.0563 47.0012 13.3879 47.9854 9.59954 48.4901C7.67857 48.7456 5.77652 48.7424 3.93757 48.0011C0.959906 46.7994 -0.551001 43.8217 0.18395 40.6926C0.679176 38.5887 1.7264 36.7655 2.92504 35.0117C8.10755 27.4351 14.3531 20.8742 21.7215 15.3951C25.1629 12.8338 28.7619 10.5123 32.607 8.59763C34.8466 7.48101 37.165 6.57257 39.6159 6.04265C41.0511 5.73353 42.4926 5.5695 43.9656 5.85654C46.4323 6.33599 48.6025 8.26958 48.5362 11.2409C48.5141 12.2913 48.3659 13.3543 48.1388 14.3826C47.6562 16.5906 47.1704 18.8049 46.3913 20.9373L46.3572 21.0291C46.2901 21.2104 46.2226 21.3927 46.1389 21.5681C45.8992 22.0791 45.6973 22.1359 45.1927 21.852C44.3536 21.382 44.095 20.5146 44.4482 19.4957C44.534 19.2456 44.6222 18.996 44.7105 18.7464C45.0085 17.9033 45.3068 17.0595 45.5112 16.1932C45.9465 14.3574 46.3629 12.509 46.6152 10.6416C46.8707 8.73956 46.1957 8.03932 44.2842 7.79013C42.8742 7.60718 41.521 7.89738 40.1742 8.22542C36.635 9.08339 33.4145 10.6826 30.2981 12.5153C20.4219 18.316 12.1451 25.8769 5.41378 35.1379C4.24038 36.7498 3.10483 38.3837 2.34465 40.2416C1.80211 41.5632 1.43305 42.9133 1.78003 44.3611C1.96613 45.137 2.39196 45.7237 3.06698 46.1496C4.11105 46.8088 5.28446 46.9602 6.47047 47.0107C8.70687 47.1053 10.8896 46.6858 13.0598 46.219C17.3875 45.2885 21.5291 43.7933 25.5855 42.0585C34.4901 38.2512 43.1045 33.8636 51.4192 28.8955C52.5643 28.2111 53.6966 27.5013 54.8101 26.7664C55.2896 26.4478 55.7312 26.063 56.1538 25.6655C56.6365 25.2145 56.9077 24.6562 56.8983 23.9622ZM78.3197 25.5857C78.5181 25.4619 78.72 25.3359 78.9274 25.2079C78.5941 26.0891 78.2605 26.9587 77.9295 27.8212C77.2144 29.6849 76.5118 31.516 75.852 33.3618C74.4389 37.2952 73.0636 41.2412 71.7167 45.1967C71.0259 47.2186 70.3761 49.2563 69.9818 51.3697C69.7232 52.7639 69.7642 54.1297 70.1175 55.4892C70.2436 55.9687 70.5023 56.3661 70.9754 56.5806C71.3823 56.7635 71.7735 56.6279 71.8712 56.2021C71.9715 55.7618 71.9869 55.2951 72.002 54.8388V54.8387L72.0037 54.7858C72.0069 54.6502 71.8996 54.3947 71.8334 54.3915C71.5181 54.3759 71.5365 54.1945 71.5542 54.0198C71.5579 53.9831 71.5616 53.9466 71.5621 53.9121C71.5811 52.4295 72.0163 51.0322 72.4516 49.638C73.2087 47.2123 73.9689 44.7835 74.7732 42.3736C76.0191 38.6484 77.2872 34.9326 78.5741 31.2232C79.2 29.4215 79.845 27.6258 80.49 25.8301L80.4901 25.8299L80.4901 25.8296L80.4902 25.8293L80.4903 25.8291L80.4904 25.8288L80.4905 25.8285C80.8921 24.7105 81.2937 23.5925 81.6906 22.4732C81.9619 21.7067 81.7789 21.3786 81.0156 21.0695C80.7795 21.3181 80.5483 21.5691 80.3178 21.8191L80.3175 21.8195L80.3174 21.8196L80.3173 21.8197L80.3173 21.8197L80.3172 21.8198L80.3172 21.8198L80.3171 21.8198C79.7963 22.385 79.2798 22.9455 78.7224 23.4636C77.9086 24.2206 76.9875 24.8483 75.9151 25.2206C75.9498 25.0408 76.0191 24.9083 76.1106 24.7947L76.1792 24.7098C76.4876 24.3277 76.7972 23.9442 77.1232 23.5772C77.3787 23.287 77.325 23.0409 77.0916 22.7791C76.8077 22.4574 76.5365 22.347 76.1579 22.5835C75.7384 22.8454 75.3063 23.1608 75.0413 23.5614C74.6975 24.0755 74.2654 24.3941 73.7291 24.6338C73.5225 24.7272 73.3211 24.8302 73.1198 24.9331L73.1197 24.9332C72.9402 25.0251 72.7607 25.1169 72.5778 25.2016C72.4747 25.2497 72.3716 25.298 72.2685 25.3463C71.1615 25.865 70.0556 26.3832 68.8494 26.64C68.6808 26.6758 68.508 26.6919 68.3347 26.7081C68.2487 26.7161 68.1625 26.7241 68.0766 26.7346C68.0688 26.7111 68.0609 26.6867 68.0531 26.6624L68.0529 26.662C68.0451 26.6376 68.0372 26.6131 68.0293 26.5895C68.122 26.526 68.215 26.4628 68.308 26.3997L68.3087 26.3992L68.3093 26.3988L68.3109 26.3977C68.4987 26.2702 68.6865 26.1426 68.8715 26.0123L68.9162 25.9805C69.4376 25.6097 69.9556 25.2413 70.2531 24.6433C70.436 24.2743 70.5685 23.8989 70.4613 23.4794C70.2058 22.47 69.1932 22.0694 68.3321 22.6719C67.165 23.492 66.3859 24.555 66.4143 26.0375C65.0233 26.6715 63.8719 26.8639 62.9603 26.6211C62.9351 25.9334 63.3452 25.4382 63.7552 24.9682C64.0202 24.6654 64.1274 24.3468 63.9823 24.003C63.7584 23.4731 63.3862 23.0315 62.7774 22.9684C61.6482 22.8517 60.5189 22.7696 59.3865 22.7034C58.8566 22.6719 58.661 22.9873 58.8661 23.492C59.0869 24.0345 59.4685 24.4225 60.0742 24.514C60.3664 24.5581 60.6614 24.5911 60.9648 24.6249L60.9648 24.6249L60.9648 24.6249L60.9649 24.6249L60.9651 24.625L60.9652 24.625L60.9652 24.625C61.1169 24.6419 61.2708 24.6591 61.4274 24.678C61.4137 24.7574 61.4012 24.8248 61.3899 24.8859L61.3898 24.8862L61.3896 24.8875L61.3895 24.8878C61.3749 24.9666 61.3623 25.0347 61.3517 25.1038C61.0394 27.1541 62.749 28.6461 64.7141 28.0216C65.239 27.8546 65.7579 27.6652 66.2903 27.4709L66.2905 27.4708C66.5323 27.3826 66.777 27.2933 67.0262 27.2046C67.0759 27.249 67.1472 27.3108 67.224 27.3772L67.2242 27.3774L67.2723 27.4191C68.1334 28.1667 69.1049 28.3307 70.1585 27.908C70.6474 27.7124 71.13 27.4853 71.5874 27.2267C72.1942 26.8838 72.7913 26.5248 73.4019 26.1577L73.4022 26.1575C73.6452 26.0114 73.8904 25.864 74.1392 25.7158C74.1424 25.7775 74.1446 25.8355 74.1466 25.8909V25.8911C74.1505 25.9971 74.1541 26.0937 74.1644 26.1889C74.2622 27.0027 74.8426 27.3686 75.5965 27.0721C76.016 26.9049 76.4324 26.7188 76.8235 26.4949C77.321 26.2086 77.8088 25.9044 78.3197 25.5857ZM68.3889 24.8641C68.5845 24.3373 68.9567 23.9525 69.474 23.4857C69.3613 24.2501 68.8958 24.5441 68.4379 24.8331L68.3889 24.8641ZM195.258 22.3323C193.88 22.1399 192.921 21.5438 192.527 20.1432C192.444 20.2775 192.37 20.3941 192.302 20.5006L192.302 20.5009C192.198 20.6646 192.109 20.8043 192.025 20.9476C191.278 22.1999 190.249 23.1367 188.887 23.6666C187.937 24.0357 186.969 24.0987 186.042 23.5751C185.767 23.4206 185.54 23.4332 185.262 23.5467C183.493 24.2628 181.957 23.7865 180.582 22.591C180.001 22.0863 179.982 22.0705 179.399 22.5405C178.79 23.0294 178.181 23.5183 177.569 24.0041C177.411 24.1271 177.241 24.2407 177.071 24.3448C176.121 24.9094 175.26 24.5467 174.992 23.4679C174.973 23.3871 174.962 23.3034 174.949 23.1957L174.949 23.195L174.949 23.1946L174.948 23.1923L174.948 23.1899L174.94 23.122C174.935 23.0902 174.931 23.0563 174.926 23.02C174.795 23.1025 174.668 23.1834 174.544 23.2627L174.543 23.2632C174.273 23.4353 174.016 23.5995 173.752 23.7549C172.945 24.2312 172.15 24.3732 171.387 23.5688C171.315 23.6484 171.245 23.7247 171.176 23.7993C171.054 23.9318 170.936 24.0591 170.825 24.1902C170.314 24.8053 169.683 25.2532 168.958 25.5718C168.273 25.8715 167.614 25.7137 167.109 25.1523C166.627 24.6192 166.516 23.9631 166.879 23.3354C167.586 22.1084 168.684 21.4397 170.081 21.345C170.873 21.2914 171.478 21.7456 171.876 22.4112C171.948 22.5301 171.93 22.702 171.911 22.8883C171.901 22.9786 171.891 23.0724 171.891 23.1651C172.352 23.3922 172.768 23.1651 173.122 22.919C173.744 22.487 174.354 22.0339 174.963 21.5807L174.964 21.5799L174.965 21.5797C175.325 21.3118 175.686 21.0439 176.049 20.7804C176.194 20.6763 176.399 20.5439 176.547 20.5722C176.828 20.629 176.948 20.9034 176.885 21.1652C176.797 21.5221 176.676 21.8713 176.556 22.2204L176.512 22.3508C176.492 22.4087 176.472 22.4667 176.453 22.5248C176.444 22.5499 176.436 22.575 176.427 22.6002L176.427 22.6004C176.358 22.8025 176.287 23.0087 176.304 23.2723C176.565 23.1071 176.827 22.9419 177.089 22.7767C177.353 22.6107 177.616 22.4447 177.878 22.2787C177.964 22.225 178.048 22.1706 178.133 22.1163C178.303 22.0077 178.472 21.8991 178.645 21.7961C179.638 21.1999 179.922 21.1999 180.761 22.0264C181.764 23.0137 183.66 23.3039 184.852 22.5374C184.825 22.4583 184.795 22.3785 184.765 22.298L184.765 22.2969C184.702 22.1273 184.638 21.9544 184.591 21.7772C184.376 20.9444 184.77 20.1906 185.527 19.9603C186.212 19.749 187.243 20.2221 187.48 20.8908C187.54 21.0548 187.511 21.2977 187.433 21.4554C187.292 21.729 187.125 21.9906 186.946 22.2712L186.946 22.2718L186.945 22.2729L186.944 22.2753C186.864 22.401 186.781 22.5306 186.698 22.6667C186.752 22.6718 186.805 22.6802 186.858 22.6885C186.968 22.7058 187.075 22.7226 187.177 22.7077C188.171 22.5626 189.054 22.1399 189.884 21.6037C190.357 21.2985 190.825 20.9834 191.292 20.6679C191.472 20.5465 191.652 20.4251 191.833 20.3041C192.262 20.0202 192.549 19.6733 192.713 19.1433C192.88 18.6071 193.227 18.115 193.558 17.6482C193.795 17.3138 194.069 17.3138 194.426 17.5189C195.107 17.91 195.265 18.4999 194.883 19.2096C194.599 19.7395 194.486 20.2947 194.637 20.8845C195.776 21.4018 195.987 21.6195 196.426 22.7771C196.6 22.7771 196.777 22.7801 196.957 22.7831L196.957 22.7831C197.36 22.79 197.773 22.797 198.186 22.7708C200.443 22.6323 202.701 22.4877 204.959 22.343C206.301 22.257 207.644 22.171 208.986 22.0863C209.672 22.0427 210.359 22.0029 211.046 21.9631C212.348 21.8876 213.65 21.8121 214.951 21.7109C216.525 21.5902 218.098 21.453 219.671 21.3159L219.671 21.3159L219.671 21.3159L219.671 21.3159L219.672 21.3159L219.672 21.3158C220.686 21.2274 221.701 21.1389 222.717 21.0548C223.319 21.0044 223.925 20.9665 224.53 20.976C225.199 20.9886 225.824 21.5122 225.975 22.1147C226.066 22.4806 225.899 22.7424 225.581 22.632C224.935 22.4114 224.303 22.5072 223.674 22.6024C223.412 22.642 223.151 22.6816 222.89 22.6982C221.587 22.7799 220.287 22.8873 218.985 22.9948C217.924 23.0825 216.862 23.1702 215.799 23.2439L215.472 23.2663C212.537 23.4671 209.599 23.6682 206.658 23.7959C203.759 23.9221 200.861 23.982 197.959 24.0073C197.333 24.0124 196.704 23.8802 196.081 23.7492L196.08 23.749C195.936 23.7188 195.793 23.6887 195.65 23.6603C195.423 23.6161 195.192 23.4458 195.022 23.2755C194.7 22.9663 194.886 22.6635 195.258 22.3323ZM170.412 22.8749C169.582 23.0137 168.926 23.4111 168.497 24.1398C169.314 23.9915 169.914 23.5089 170.412 22.8749ZM185.818 21.4634C185.744 21.5898 185.712 21.7688 185.72 22.0137C185.72 22.0135 185.72 22.0134 185.72 22.0132C185.712 21.7692 185.745 21.59 185.818 21.4634ZM186.33 21.2077C186.339 21.2072 186.348 21.2068 186.357 21.2064C186.357 21.2064 186.357 21.2063 186.357 21.2062C186.348 21.2066 186.339 21.2071 186.33 21.2077ZM186.191 21.4175C186.182 21.4293 186.172 21.4412 186.163 21.4532C186.054 21.5907 185.933 21.7436 185.782 21.9351C185.948 21.7269 186.076 21.5642 186.191 21.4175ZM152.76 23.1472C152.669 23.2069 152.571 23.2715 152.464 23.3435C152.697 22.0093 152.057 21.2743 150.877 21.2996C150.675 21.3027 150.473 21.3059 150.275 21.3406C148.836 21.5929 147.401 21.8642 146.032 22.4004C145.849 22.473 145.653 22.5613 145.524 22.7001C144.915 23.3593 144.638 24.1637 144.597 25.0406C144.572 25.5295 145.045 26.113 145.515 26.2139C145.991 26.318 146.25 25.9711 146.489 25.6493C146.609 25.4916 146.716 25.3087 146.77 25.1194C146.878 24.7354 146.971 24.3483 147.07 23.9433L147.07 23.9431L147.07 23.9429L147.07 23.9421L147.07 23.9409C147.113 23.7645 147.156 23.5847 147.202 23.4003C148.385 23.0344 149.622 22.7285 150.918 22.6181C150.933 22.6646 150.947 22.706 150.96 22.7441C150.985 22.8169 151.006 22.8777 151.022 22.9398C151.502 24.6526 153.038 25.0626 154.271 23.8104C154.307 23.7735 154.344 23.7364 154.38 23.6992L154.382 23.6969L154.382 23.6968C154.591 23.4832 154.802 23.2675 155.041 23.088C155.637 22.6401 155.854 22.6717 156.391 23.2142C157.551 24.3876 158.911 24.5201 160.28 23.5959C160.437 23.491 160.594 23.3834 160.787 23.2516L160.788 23.2512C160.885 23.1849 160.99 23.1125 161.11 23.0313C161.075 23.1576 161.045 23.2679 161.017 23.3677L161.016 23.3709L161.016 23.3711C160.959 23.5735 160.915 23.7322 160.879 23.8924C160.847 24.0357 160.81 24.179 160.774 24.3225L160.774 24.3231L160.774 24.3237L160.774 24.3243L160.774 24.3249C160.68 24.6953 160.586 25.0666 160.554 25.4412C160.479 26.3149 160.759 27.0782 161.46 27.6523C161.668 27.8226 161.923 27.9425 162.135 27.7154C162.456 27.3684 162.658 26.9615 162.554 26.4505C162.396 26.4884 162.289 26.5136 162.125 26.5515C162.137 26.4715 162.146 26.3974 162.155 26.3276L162.155 26.3257C162.174 26.168 162.191 26.0326 162.226 25.9017C163.04 22.8578 163.996 19.8612 165.1 16.9119C165.216 16.5965 165.377 16.423 165.737 16.3852C166.721 16.2812 167.699 16.1546 168.68 16.0278L169.039 15.9814C171.465 15.6691 173.888 15.3537 176.31 15.032C176.429 15.0165 176.544 14.9655 176.658 14.9147C176.707 14.8929 176.756 14.8711 176.805 14.8522C176.799 14.8159 176.792 14.7796 176.785 14.7433C176.778 14.7071 176.771 14.6708 176.764 14.6345C175.475 14.601 174.189 14.6941 172.904 14.7871C172.375 14.8254 171.846 14.8637 171.317 14.8932C170.046 14.9633 168.778 15.0775 167.488 15.1935L167.488 15.1935L167.487 15.1936C166.92 15.2446 166.349 15.2961 165.772 15.3442L165.784 15.2957C165.827 15.1202 165.853 15.0132 165.882 14.9089C165.907 14.8169 165.937 14.7248 165.967 14.6325C166.03 14.4371 166.094 14.2408 166.115 14.0415C166.156 13.6472 165.832 13.2151 165.481 13.111C165.163 13.0132 164.974 13.1457 164.721 13.6724C164.52 14.0944 164.324 14.5208 164.127 14.9466L164.127 14.9481L164.125 14.9511C164.039 15.1381 163.953 15.3251 163.866 15.5114C163.525 15.547 163.187 15.5846 162.851 15.6221C162.174 15.6975 161.505 15.772 160.835 15.8268C159.394 15.9446 157.953 16.0559 156.511 16.1673C155.288 16.2617 154.065 16.3561 152.842 16.4545C151.912 16.5302 150.984 16.628 150.057 16.729C149.536 16.7857 149.454 16.8993 149.524 17.404C149.64 18.2304 150.17 18.6752 150.984 18.5679C152.183 18.4102 153.375 18.2273 154.571 18.038C155.934 17.8234 157.297 17.6063 158.659 17.3892L158.662 17.3888L158.665 17.3884L158.667 17.388L158.67 17.3876C159.967 17.1809 161.264 16.9743 162.561 16.77C162.712 16.7447 162.868 16.7405 163.042 16.7359C163.129 16.7335 163.22 16.7311 163.318 16.7258C163.289 16.8191 163.266 16.8981 163.246 16.9674L163.245 16.9681L163.245 16.9692C163.209 17.0911 163.182 17.1832 163.15 17.2715C163.006 17.6655 162.856 18.0571 162.705 18.4485C162.358 19.3515 162.011 20.2533 161.747 21.1797C161.491 22.0787 161.002 22.6212 160.163 22.9177C160.121 22.9333 160.079 22.954 160.038 22.9747C159.988 22.9999 159.938 23.0251 159.886 23.0407C158.624 23.4287 157.447 23.5706 156.438 22.3909C155.728 21.5645 154.978 21.5456 154.082 22.1512C153.928 22.2551 153.786 22.3764 153.644 22.4976L153.644 22.4978L153.643 22.4979C153.536 22.59 153.428 22.6819 153.315 22.7663C153.149 22.8905 152.975 23.0054 152.76 23.1472ZM98.6769 22.9589C98.4719 23.4383 98.1123 23.7254 97.7022 23.902L97.4842 23.9965L97.4842 23.9966C96.4716 24.4357 95.4571 24.8758 94.4123 25.2142C93.4818 25.517 92.5134 25.5202 91.6712 24.8672C91.1161 24.4383 90.7439 23.8831 90.5893 23.1639C90.5206 23.1639 90.4529 23.1604 90.3865 23.1569C90.2454 23.1495 90.1102 23.1424 89.9837 23.1702C89.4725 23.2859 88.9632 23.408 88.4538 23.5302L88.4533 23.5303C87.8376 23.6779 87.2218 23.8256 86.6023 23.962C85.9115 24.1134 85.6024 24.514 85.5708 25.2142C85.555 25.5296 85.4446 25.8577 85.2995 26.1447C85.0787 26.5863 84.7538 26.9522 84.1861 26.8923C83.7382 26.845 83.1578 26.2488 83.101 25.7504C83.0284 25.1385 83.0852 24.5234 83.429 23.9998C83.5994 23.7443 83.8833 23.5393 84.1577 23.3847C85.5803 22.5835 87.1417 22.1861 88.7346 21.9054C89.227 21.8182 89.7259 21.7636 90.2255 21.709C90.5036 21.6785 90.7818 21.6481 91.0593 21.612C91.5356 21.5489 91.892 21.7319 92.1601 22.1198C92.3652 22.4163 92.4693 22.7034 92.1318 22.9841C92.056 23.0472 91.9866 23.1292 91.9425 23.2175C91.728 23.6307 91.9046 24.0377 92.3652 24.0124C93.0086 23.9777 93.6553 23.8516 94.283 23.6938C94.7067 23.5871 95.1252 23.4576 95.544 23.3281C95.9918 23.1895 96.4399 23.0508 96.8947 22.94C97.2484 22.8546 97.6209 22.8466 97.9919 22.8385C98.1007 22.8362 98.2093 22.8339 98.3173 22.8296C98.3935 22.8252 98.4711 22.8628 98.5564 22.9042L98.5565 22.9042C98.5949 22.9229 98.6348 22.9422 98.6769 22.9589ZM101.823 22.0133C101.933 23.1425 101.223 23.8743 100.334 24.439C100.283 24.398 100.23 24.3538 100.179 24.3128C100.278 24.1587 100.374 24.0023 100.471 23.8458L100.471 23.8457L100.471 23.8457C100.699 23.4769 100.926 23.1072 101.186 22.764C101.501 22.3445 101.52 21.9944 101.132 21.6569C100.646 21.2374 100.003 21.3446 99.662 21.9344C99.4473 22.3054 99.2426 22.6831 99.038 23.0605C98.846 23.4149 98.654 23.769 98.4539 24.1172C98.1764 24.5935 98.2394 25.0257 98.5296 25.461C98.9649 26.1202 99.744 26.4136 100.507 26.1833C101.274 25.953 101.93 25.5398 102.435 24.9121C104.062 22.8902 102.838 20.8241 101.384 20.0419C101.123 19.9004 100.768 19.9138 100.439 19.9262C100.386 19.9282 100.334 19.9302 100.283 19.9315C100.18 19.9356 100.08 20.0091 99.9512 20.1046L99.9511 20.1046C99.8835 20.1546 99.8076 20.2106 99.7188 20.2658C100.794 20.5592 101.715 20.9124 101.823 22.0133ZM100.294 11.8658C99.8588 11.4558 99.4078 11.44 98.9062 11.8974C98.6385 12.1399 98.404 12.419 98.1701 12.6973L98.1701 12.6974L98.1699 12.6975C98.0815 12.8027 97.9932 12.9079 97.9032 13.0108C97.512 13.4588 97.0704 13.4461 96.8938 12.9099C96.6351 12.1213 96.837 11.3801 97.3543 10.7334C97.777 10.2035 98.329 10.0584 98.9725 10.2351C99.6917 10.4401 100.209 11.0836 100.294 11.8658Z" fill="white"/>
</svg>
