<svg width="116" height="110" viewBox="0 0 116 110" fill="none" xmlns="http://www.w3.org/2000/svg">
<path id="LaBurra" fill-rule="evenodd" clip-rule="evenodd" d="M7.40343 2.17519C6.56184 1.21189 5.7073 0.323687 4.41513 0.00517619H4.41444C3.99776 0.00517619 3.58366 0.0051762 3.16439 0C3.10916 0.0208236 3.05362 0.0422797 2.99787 0.0638153L2.99786 0.0638177C2.89416 0.103877 2.78974 0.144211 2.68533 0.181262C1.5563 0.587816 0.813108 1.34914 0.670684 2.55845C0.513783 3.8894 0.38577 5.22539 0.257779 6.56114L0.257778 6.56115L0.257776 6.56118C0.201991 7.14336 0.14621 7.72551 0.0880427 8.30718C0.0733762 8.45385 0.0535823 8.60153 0.0338238 8.74896L0.0338223 8.74897C0.0221843 8.8358 0.0105585 8.92254 0 9.00893V13.8979C0.00813884 13.9512 0.0167006 14.0045 0.0252625 14.0578L0.0252639 14.0578C0.0466668 14.1909 0.0680698 14.3241 0.0828665 14.4573C0.168187 15.2613 0.24207 16.0673 0.315963 16.8735L0.315966 16.8735C0.475312 18.612 0.634702 20.3509 0.908916 22.0705C1.95249 28.6453 3.96973 34.9404 6.6706 41.018C11.5985 52.1089 18.3338 62.0086 26.527 70.9347C27.2081 71.6753 27.9305 72.3771 28.6686 73.0581C28.8757 73.2523 28.9845 73.3973 28.9741 73.6874C28.9016 75.513 28.6608 77.3127 28.2258 79.0865C27.8347 80.6894 28.6686 82.1551 30.1627 82.5228C31.675 82.8957 33.1122 82.0204 33.4695 80.402C33.7906 78.9389 34.0729 77.4577 34.2283 75.9713C34.6659 71.7633 34.3992 67.5761 33.5783 63.4354C32.8247 59.6211 31.5093 55.9699 30.1446 52.3394C29.2282 49.8984 28.3029 47.461 27.3775 45.0234L27.3766 45.0211L27.3763 45.0203L27.376 45.0195L27.3757 45.0187L27.3754 45.018L27.3751 45.0172C26.5126 42.7452 25.65 40.4731 24.7946 38.198C24.5742 37.6143 24.3874 37.0163 24.2007 36.4185C24.1133 36.1384 24.0258 35.8584 23.9349 35.58C24.1136 35.6628 24.2094 35.7872 24.2949 35.914L24.9259 36.8501C25.84 38.2059 26.7545 39.5623 27.6638 40.9222C28.0111 41.4408 28.3587 41.9592 28.7064 42.4776C32.1825 47.6614 35.6591 52.8458 38.7547 58.2719C40.3292 61.0324 41.8259 63.8342 42.8099 66.8717C43.245 68.2157 43.491 69.5752 43.3589 71.015C43.1595 73.2109 45.3321 75.1193 47.5125 74.7154C48.7114 74.4927 49.8379 74.0369 50.8478 73.3326C52.575 72.1285 54.4835 71.4267 56.5888 71.2713C59.5071 71.0564 62.2987 71.4086 64.7898 73.1021C65.7324 73.7443 66.7474 74.2156 67.8325 74.5781C70.3702 75.4275 72.9701 73.3274 72.6334 70.6835C72.5816 70.2899 72.5454 69.8678 72.6334 69.4923C72.6937 69.2362 72.7522 68.9791 72.8107 68.7219L72.8107 68.7218L72.8107 68.7218L72.8108 68.7217L72.8108 68.7216L72.8108 68.7215L72.8108 68.7215C73.0564 67.6419 73.3026 66.5591 73.6874 65.5304C74.9847 62.0656 76.844 58.8753 78.7473 55.7161C81.95 50.4032 85.4156 45.2619 88.8814 40.1204L88.8823 40.1192L88.8831 40.118L88.8839 40.1167L88.8847 40.1155L88.8856 40.1143L88.8864 40.1131C89.8633 38.6638 90.8403 37.2145 91.8114 35.7612C91.8431 35.7129 91.8813 35.6677 91.9196 35.6223L91.9197 35.6222L91.9197 35.6222L91.9198 35.6221L91.9201 35.6218L91.9208 35.6209L91.9209 35.6208L91.921 35.6207C91.9417 35.5961 91.9625 35.5716 91.9823 35.5463C91.9953 35.769 91.9486 35.9658 91.8787 36.1549C91.4229 37.3888 90.9688 38.6234 90.5148 39.8579L90.5137 39.8608L90.5126 39.8637L90.5116 39.8666L90.5105 39.8695L90.5085 39.875L90.5065 39.8805L90.5064 39.8805L90.5064 39.8806L90.5064 39.8807L90.5064 39.8807L90.5063 39.8808L90.5063 39.8808C89.4053 42.8746 88.3043 45.8681 87.1787 48.8513L86.9231 49.529C85.4482 53.4377 83.9747 57.3428 82.8853 61.3845C82.0981 64.3029 81.7822 67.2783 81.6242 70.2795C81.443 73.7262 81.6786 77.1418 82.5357 80.5004C82.7558 81.3601 83.2479 81.9997 84.0584 82.3571C85.0683 82.805 86.0394 82.6859 86.8887 81.9868C87.808 81.2332 88.0022 80.2518 87.7925 79.0943C87.5837 77.9506 87.4241 76.7971 87.2646 75.644C87.1926 75.1234 87.1206 74.603 87.0441 74.0835C86.969 73.576 87.0337 73.1591 87.562 72.8924C87.743 72.7999 87.8897 72.6344 88.035 72.4704L88.0352 72.4702C88.0852 72.4138 88.135 72.3576 88.1861 72.3045C95.8536 64.2822 102.247 55.351 107.245 45.4435C111.955 36.1082 115.104 26.3043 115.845 15.809C116.155 11.4094 116.003 7.03054 115.36 2.6672C115.159 1.29217 114.353 0.47388 113.045 0.103579C112.996 0.089568 112.951 0.0648952 112.905 0.0399769C112.883 0.0280524 112.861 0.0160717 112.838 0.00517619H111.593C110.282 0.323687 109.374 1.18859 108.579 2.21663C108.425 2.4147 108.254 2.59966 108.083 2.78463C108.026 2.84632 107.969 2.908 107.913 2.97018C102.607 8.81472 97.3322 14.6826 92.3112 20.7731C86.3527 28.0005 80.6713 35.4298 75.7098 43.3874C72.8587 47.9579 70.2744 52.6682 68.3012 57.6919C67.3663 60.0665 66.605 62.4954 66.0949 65.116C66.0683 65.0415 66.0446 64.9839 66.025 64.9363C65.9948 64.8629 65.9743 64.813 65.968 64.7613C65.9288 64.4067 65.8926 64.0522 65.8564 63.6978L65.8562 63.6953C65.7968 63.1135 65.7374 62.5321 65.665 61.9516L65.6425 61.7717C65.4818 60.4877 65.3212 59.2041 65.1109 57.9275C65.0332 57.464 64.8493 56.9332 64.2667 56.8969C63.6918 56.8607 63.3578 57.3061 63.1972 57.7825C62.9227 58.5931 62.6664 59.4243 62.5291 60.2659C62.3776 61.1859 62.2654 62.1128 62.1532 63.0399L62.1532 63.0402C62.0831 63.6186 62.0131 64.1972 61.9335 64.7742C61.9105 64.9427 61.8376 65.1051 61.7649 65.2672C61.7314 65.3419 61.698 65.4164 61.6694 65.4915L61.4545 65.5071C61.4042 65.3774 61.3473 65.2489 61.2905 65.1205L61.2904 65.1203C61.1657 64.8385 61.0409 64.5567 60.9858 64.2615C60.739 62.9611 60.5069 61.6582 60.2749 60.3557C60.0929 59.3342 59.911 58.3129 59.7221 57.2931C59.4554 55.8507 59.1576 54.4136 58.8468 52.9816C58.8186 52.8508 58.7192 52.7346 58.6203 52.6188C58.5742 52.5649 58.5282 52.511 58.4895 52.4559C58.4321 52.5003 58.3673 52.5409 58.3025 52.5815C58.1596 52.671 58.0174 52.76 57.9586 52.8883C57.71 53.4192 57.4563 53.9682 57.3449 54.5379C57.1312 55.6435 56.9363 56.7533 56.7415 57.863L56.7414 57.8632L56.7414 57.8633L56.7414 57.8635L56.7414 57.8636L56.7413 57.8637L56.7413 57.8639L56.7413 57.8639L56.7413 57.864L56.7413 57.864L56.7413 57.8641L56.7413 57.8641L56.7413 57.8641C56.5278 59.0801 56.3143 60.296 56.076 61.5063C55.8611 62.5964 55.5374 63.6685 55.206 64.7302C55.158 64.8846 54.9945 65.0038 54.8313 65.1227C54.7564 65.1772 54.6816 65.2317 54.6181 65.2895C54.5704 65.2287 54.5162 65.1702 54.462 65.1117C54.3455 64.986 54.2291 64.8605 54.1779 64.7121C53.9818 64.1496 53.7974 63.5829 53.6128 63.016L53.6127 63.0156L53.6126 63.0153L53.6125 63.0149L53.6124 63.0146L53.6123 63.0142L53.6122 63.0141L53.6121 63.0137C53.3874 62.3235 53.1626 61.633 52.9168 60.9495C52.474 59.7221 51.9872 58.5102 51.477 57.3086C51.4099 57.1549 51.2463 57.0422 51.0825 56.9293C51.0063 56.8768 50.93 56.8242 50.8633 56.7674C50.817 56.8381 50.7692 56.9083 50.7212 56.9786L50.7212 56.9787L50.7211 56.9788C50.6163 57.1325 50.5111 57.2868 50.4205 57.4485C50.3652 57.5471 50.3501 57.6726 50.3358 57.7917L50.3325 57.8188C50.2446 58.5812 50.1592 59.3448 50.0737 60.1088L50.0727 60.1175C50.0325 60.4768 49.9923 60.8361 49.9518 61.1955C49.8639 61.9999 49.7734 62.8017 49.6828 63.6035L49.6825 63.6064C49.5665 63.4833 49.5263 63.358 49.4866 63.2346L49.4753 63.1998C49.3027 62.6578 49.1373 62.1134 48.972 61.5691C48.604 60.3579 48.2362 59.1473 47.7896 57.9664C45.85 52.8417 43.2113 48.0666 40.3188 43.4288C34.9507 34.8187 28.8084 26.7704 22.2362 19.0589C19.1828 15.4748 16.0567 11.9531 12.9306 8.43153L12.9306 8.43148L12.9305 8.43143L12.9304 8.43126L12.9303 8.43119C11.083 6.35014 9.23572 4.2691 7.40343 2.17519ZM28.0756 61.5917V62.0034C27.9173 61.9156 27.771 61.8374 27.6331 61.7637L27.6327 61.7635L27.6326 61.7634C27.421 61.6503 27.2288 61.5476 27.0423 61.4363C24.6755 59.9603 22.8007 57.9612 21.0968 55.7912C17.6035 51.3372 14.9778 46.3835 12.7845 41.1915C10.3296 35.3806 8.53764 29.3703 7.51219 23.1399C6.98652 19.9522 6.69131 16.7438 6.71203 13.5095V12.9269C6.76147 12.9868 6.80108 13.0318 6.83364 13.0688L6.83365 13.0688L6.83369 13.0689L6.83371 13.0689C6.88127 13.1229 6.91378 13.1599 6.93991 13.2014C11.8212 21.1408 16.5962 29.1425 20.6747 37.5351C23.1244 42.5743 25.3359 47.7145 26.7989 53.1421C27.5447 55.9103 28.0548 58.7147 28.0756 61.5917ZM109.153 13.0845C109.192 13.0317 109.238 12.9686 109.296 12.888C109.296 13.1406 109.297 13.3523 109.297 13.5452L109.297 13.5535C109.298 13.7114 109.298 13.8567 109.298 14.0015C109.252 19.9833 108.242 25.8175 106.605 31.5507C104.495 38.9386 101.522 45.9536 97.3245 52.4144C95.5688 55.1153 93.6085 57.6505 91.1744 59.7868C90.2137 60.631 89.1882 61.382 87.9608 61.9724C87.9608 61.8051 87.9585 61.6442 87.9564 61.4877V61.4875V61.4872V61.487V61.4867C87.9519 61.1662 87.9477 60.8636 87.9634 60.5611C88.1964 56.0165 89.4679 51.7075 91.0345 47.4762C93.4506 40.9506 96.5373 34.7358 99.9606 28.6945C102.021 25.059 104.157 21.4656 106.293 17.8722C107.198 16.3492 108.104 14.8261 109.003 13.2998C109.042 13.2345 109.087 13.1744 109.153 13.0845ZM50.5631 106.427C51.1017 104.599 51.1095 102.812 49.3848 101.442C51.6196 98.8887 50.5268 95.2504 47.2848 94.3933C46.7332 94.2483 46.1505 94.1758 45.5808 94.1706C43.7393 94.1501 41.8995 94.1539 40.0587 94.1577C39.5672 94.1587 39.0756 94.1597 38.584 94.1602C38.0065 94.1628 37.7916 94.3648 37.7916 94.9293C37.789 99.4817 37.789 104.034 37.7916 108.586C37.7916 109.161 37.9987 109.368 38.571 109.371L39.0125 109.373C40.1912 109.378 41.3699 109.383 42.5485 109.371C42.922 109.368 43.2962 109.369 43.6705 109.37H43.6707H43.6708H43.6709H43.671H43.6711H43.6712H43.6713H43.6714C44.7348 109.373 45.7998 109.376 46.8549 109.278C48.6443 109.115 50.0348 108.216 50.5631 106.427ZM41.8468 105.979V103.356C42.2228 103.356 42.5955 103.354 42.9661 103.352H42.9662H42.9663H42.9664H42.9665H42.9666H42.9667C43.8387 103.348 44.6981 103.343 45.5575 103.363C46.2878 103.382 46.7927 103.912 46.8264 104.604C46.8627 105.329 46.4069 105.93 45.6508 105.963C44.7682 106.002 43.8831 105.994 42.9854 105.986H42.9844H42.9834H42.9823H42.9812H42.9802H42.9791C42.6041 105.982 42.2269 105.979 41.8468 105.979ZM44.993 100.002H41.8364C41.8364 99.158 41.8364 98.3708 41.839 97.5603C42.205 97.5603 42.5689 97.5565 42.9314 97.5527L42.9332 97.5527H42.9333H42.9334H42.9335H42.9336H42.9337H42.9338C43.804 97.5436 44.6652 97.5345 45.5239 97.5784C46.2023 97.6121 46.5416 98.1507 46.5053 98.8654C46.4716 99.5179 46.0521 99.94 45.3763 99.9944C45.2706 100.003 45.163 100.003 45.0567 100.002H45.0566H45.0565H45.0564L44.993 100.002ZM97.1974 105.84L97.2021 105.849C97.5108 106.441 97.8186 107.032 98.1264 107.623C98.1865 107.74 98.2486 107.855 98.3107 107.971L98.3108 107.971C98.4225 108.179 98.5341 108.386 98.634 108.599C98.8334 109.027 98.6573 109.356 98.1938 109.363C97.3899 109.38 96.5843 109.375 95.7797 109.369H95.7789H95.7781C95.5932 109.368 95.4083 109.367 95.2236 109.366C94.7575 109.363 94.5218 109.047 94.3302 108.677C94.1273 108.285 93.923 107.895 93.7186 107.504C93.2133 106.537 92.708 105.571 92.2249 104.593C92.0411 104.22 91.821 104.083 91.4144 104.117C91.1007 104.142 90.7858 104.136 90.4473 104.13H90.4471H90.447H90.4468H90.4467H90.4466H90.446C90.2903 104.128 90.1296 104.125 89.9617 104.125V104.819V108.462C89.9617 109.231 89.8167 109.371 89.0295 109.371C88.8105 109.371 88.5916 109.371 88.3726 109.372C87.8251 109.373 87.2775 109.374 86.73 109.368C86.1525 109.363 85.9505 109.172 85.9479 108.586C85.9428 104.034 85.9428 99.4817 85.9479 94.9293C85.9479 94.4036 86.1447 94.1602 86.5953 94.1628L87.0094 94.1655H87.0096H87.0098H87.0101H87.0103H87.0105C89.236 94.18 91.4594 94.1945 93.6828 94.2457C94.2007 94.2586 94.7264 94.3907 95.2288 94.5409C97.6422 95.2633 98.8567 97.2832 98.5201 99.883C98.3051 101.538 97.4998 102.744 95.972 103.488C96.3738 104.26 96.7724 105.025 97.1696 105.787L97.1974 105.84ZM90.7857 100.711H90.7889H90.7894H90.7899H90.7904H90.7909H90.7914C91.5113 100.713 92.219 100.715 92.9267 100.701C93.1598 100.696 93.4006 100.621 93.6207 100.538C94.2499 100.303 94.5192 99.8805 94.527 99.1683C94.5348 98.42 94.2784 97.9642 93.6336 97.7415C92.8432 97.4689 92.0379 97.4926 91.2285 97.5164H91.2283C90.8154 97.5286 90.4013 97.5408 89.9876 97.5136C89.9902 98.6375 89.9902 99.6681 89.9902 100.709C90.1801 100.709 90.3688 100.709 90.5567 100.71L90.7857 100.711ZM82.8594 108.359C82.0229 106.745 81.184 105.132 80.3268 103.488C81.9453 102.711 82.7351 101.411 82.8982 99.6604C83.1157 97.3039 82.0566 95.4343 79.9591 94.6729C79.3635 94.4554 78.7239 94.2742 78.0998 94.256C76.0396 94.1932 73.9774 94.1809 71.9149 94.1686L71.5535 94.1665L70.9631 94.1628C70.5074 94.1602 70.2976 94.4088 70.2976 94.9164C70.2924 99.4869 70.2924 104.055 70.2976 108.625C70.3002 109.148 70.5151 109.366 71.0227 109.371C71.885 109.381 72.7473 109.381 73.6096 109.371C74.1094 109.366 74.3062 109.164 74.3114 108.669C74.3169 108.053 74.3158 107.437 74.3148 106.821C74.3144 106.575 74.3139 106.329 74.3139 106.082V104.13C74.4859 104.13 74.6523 104.132 74.8148 104.134C75.1885 104.138 75.5417 104.142 75.8936 104.122C76.2121 104.104 76.3752 104.213 76.5202 104.498C76.8898 105.23 77.2687 105.958 77.6475 106.686L77.6479 106.687C77.9908 107.346 78.3337 108.005 78.6695 108.667C78.9207 109.164 79.2755 109.402 79.8452 109.381C80.4065 109.361 80.969 109.366 81.5311 109.37C81.7677 109.372 82.0042 109.374 82.2405 109.374C83.0898 109.374 83.2504 109.11 82.8594 108.359ZM74.3502 100.673V97.5965C74.6874 97.5965 75.0205 97.5889 75.3505 97.5814C76.0772 97.5649 76.7886 97.5487 77.4939 97.6146C78.6177 97.7208 79.0994 98.552 78.8249 99.6396C78.6514 100.323 78.1283 100.616 77.525 100.655C76.7936 100.7 76.0584 100.691 75.3095 100.681H75.3092C74.9922 100.677 74.6728 100.673 74.3502 100.673ZM23.3651 94.1601H24.7557C25.6413 94.1601 25.8718 94.3232 26.1592 95.1519C27.0578 97.744 27.9537 100.336 28.8497 102.928C29.3474 104.364 29.8435 105.801 30.3392 107.237L30.3397 107.238L30.3414 107.243L30.7245 108.353C31.0145 109.19 30.8799 109.371 29.9761 109.371C29.7616 109.371 29.5471 109.371 29.3326 109.37C28.7962 109.369 28.2597 109.368 27.7233 109.374C27.2261 109.379 26.9102 109.169 26.7651 108.682C26.6938 108.443 26.6135 108.207 26.533 107.971L26.533 107.971L26.5328 107.97L26.5328 107.97L26.5327 107.97C26.4643 107.769 26.3958 107.567 26.3327 107.364C26.2576 107.123 26.1488 107.002 25.864 107.004C25.0753 107.011 24.2866 107.012 23.4979 107.012C22.5775 107.013 21.6571 107.014 20.7367 107.025C20.5995 107.027 20.3975 107.18 20.3431 107.312C20.1698 107.733 20.0316 108.168 19.8934 108.602L19.8934 108.603L19.8434 108.76C19.7217 109.14 19.4679 109.358 19.0743 109.363C18.1472 109.376 17.2202 109.384 16.2957 109.366C15.827 109.355 15.6742 109.06 15.8503 108.55C16.2452 107.4 16.6442 106.252 17.0434 105.104L17.0443 105.101C17.2731 104.443 17.5021 103.784 17.7303 103.125C18.6366 100.502 19.543 97.8786 20.4493 95.258C20.7859 94.2896 20.9646 94.1627 21.9719 94.1627C22.4407 94.1601 22.9016 94.1601 23.3651 94.1601ZM23.3301 98.5963L23.3296 98.5962L23.329 98.5961C23.3113 98.5941 23.2932 98.5921 23.2745 98.5908C22.9415 99.5805 22.6076 100.57 22.2728 101.563C22.0426 102.245 21.812 102.929 21.5809 103.614H25.0664C24.4941 101.908 23.9374 100.256 23.3781 98.6011C23.3707 98.6006 23.3633 98.5999 23.3559 98.5991C23.3473 98.5982 23.3387 98.5972 23.3301 98.5963ZM108.291 94.1593L108.043 94.1597L107.763 94.1599C107.711 94.1599 107.659 94.1599 107.607 94.1598C107.531 94.1598 107.456 94.1597 107.381 94.1596H107.381C106.998 94.1591 106.614 94.1586 106.227 94.1625C105.468 94.1651 105.222 94.3386 104.963 95.074C104.664 95.9264 104.369 96.7788 104.074 97.6326L103.881 98.1918L103.004 100.718C102.105 103.311 101.205 105.904 100.307 108.498C100.111 109.068 100.261 109.358 100.779 109.368C101.524 109.381 102.27 109.376 103.016 109.371L103.462 109.368C103.899 109.366 104.171 109.143 104.303 108.723C104.366 108.52 104.437 108.319 104.507 108.119C104.595 107.867 104.683 107.616 104.756 107.361C104.831 107.107 104.95 107.007 105.225 107.009C106.919 107.022 108.612 107.022 110.306 107.009C110.585 107.007 110.702 107.11 110.774 107.364C110.84 107.593 110.919 107.819 110.998 108.044L110.998 108.044L110.998 108.044C111.072 108.256 111.147 108.467 111.209 108.682C111.354 109.169 111.67 109.379 112.165 109.376C112.644 109.371 113.123 109.372 113.603 109.373H113.603C113.922 109.374 114.241 109.374 114.56 109.373C115.28 109.371 115.441 109.14 115.202 108.451C114.765 107.182 114.325 105.914 113.885 104.647C113.79 104.375 113.696 104.103 113.602 103.831C113.509 103.563 113.415 103.295 113.322 103.026L112.644 101.068L112.64 101.056L112.636 101.043C111.946 99.0506 111.257 97.0597 110.565 95.0688C110.311 94.3438 110.062 94.1651 109.345 94.1599C108.993 94.1582 108.642 94.1587 108.291 94.1593ZM109.513 103.622H106.017C106.137 103.267 106.256 102.915 106.375 102.564L106.644 101.765L106.644 101.765C107.001 100.707 107.354 99.6619 107.708 98.6165C107.726 98.6152 107.745 98.6132 107.763 98.6113C107.781 98.6093 107.799 98.6074 107.817 98.6061C108.135 99.5478 108.454 100.49 108.775 101.439L108.779 101.45L109.074 102.322L109.513 103.622ZM66.8536 100.949V100.949C66.8658 101.953 66.878 102.957 66.8297 103.956C66.6821 107.006 64.6985 109.088 61.6662 109.484C60.2213 109.673 58.7996 109.614 57.4142 109.122C55.2157 108.342 53.7604 106.475 53.706 104.142C53.6516 101.819 53.6584 99.4951 53.6652 97.1716V97.1713C53.6675 96.3969 53.6698 95.6225 53.6698 94.8483C53.6698 94.3589 53.8821 94.1673 54.3871 94.1621C55.2027 94.1544 56.0157 94.1569 56.8313 94.1595H56.8314H56.8316C57.5022 94.1621 57.6835 94.3382 57.6835 95.0141C57.6844 95.9035 57.6841 96.7929 57.6838 97.6823C57.6832 99.4601 57.6827 101.238 57.6913 103.016C57.6939 103.474 57.7172 103.948 57.8259 104.391C58.0538 105.307 58.6468 105.882 59.6023 106.045C61.6429 106.392 62.8315 105.403 62.847 103.301C62.8598 101.383 62.8571 99.4676 62.8544 97.5513C62.8533 96.7523 62.8522 95.9532 62.8522 95.1539C62.8522 94.2786 62.9739 94.1595 63.8466 94.1569H65.9544C66.7209 94.1569 66.8634 94.3045 66.8634 95.0918C66.8651 96.0901 66.8645 97.0885 66.8639 98.0861V98.0954V98.096C66.8637 98.5959 66.8634 99.0956 66.8634 99.5949C66.8582 99.5975 66.8504 99.5975 66.8427 99.5975C66.8427 100.048 66.8481 100.498 66.8536 100.949ZM8.25785 105.887H7.41108V105.248V95.1358C7.41108 94.2812 7.28937 94.1569 6.45555 94.1569H4.34767C3.54751 94.1569 3.39473 94.3071 3.39473 95.1073V105.794C3.39473 106.059 3.39431 106.324 3.39389 106.589C3.39283 107.251 3.39178 107.913 3.39732 108.575C3.4025 109.163 3.59931 109.368 4.169 109.368C7.41108 109.373 10.6557 109.373 13.8978 109.368C14.4209 109.368 14.6281 109.161 14.6384 108.643C14.6488 108.158 14.6459 107.671 14.643 107.186C14.6423 107.064 14.6415 106.943 14.641 106.822C14.6384 106.045 14.4882 105.887 13.7217 105.887C12.508 105.886 11.2931 105.886 10.0787 105.887C9.47157 105.887 8.86456 105.887 8.25785 105.887Z" fill="white"/>
</svg>
