<svg width="166" height="93" viewBox="0 0 166 93" fill="none" xmlns="http://www.w3.org/2000/svg">
<path id="Pia" fill-rule="evenodd" clip-rule="evenodd" d="M54.563 0.810422C54.5453 0.587376 54.3948 0.373183 54.1594 0.212094C53.8779 0.0527764 53.6036 -0.0162617 53.3363 0.00321058L53.246 0.0102914L53.0672 0.0226828C53.0247 0.0483841 52.9817 0.0740852 52.9387 0.0997863C52.8958 0.125421 52.8529 0.151056 52.8105 0.17669C52.5963 0.327158 52.1272 1.26005 51.4457 2.97184C50.7677 4.72788 50.0189 6.71404 49.2011 9.01884C48.755 10.2633 48.3089 11.5077 47.9071 12.7504C47.4645 14.0391 47.0627 15.2818 46.6998 16.4307C46.4595 17.2155 46.2363 17.9584 46.0256 18.66L46.0245 18.6636L46.0243 18.664C45.7916 19.439 45.5739 20.1636 45.365 20.8385C45.1692 21.4089 45.0177 21.8707 44.9029 22.2207L44.9027 22.2212L44.9027 22.2214C44.7583 22.6616 44.672 22.9245 44.6286 23.0034C44.5136 23.2796 44.1666 23.4407 43.6373 23.5699C43.1116 23.7434 42.2247 23.8991 41.0652 23.9841C40.7431 24.0392 40.4419 24.0874 40.1601 24.1324L40.16 24.1324C39.6275 24.2175 39.1644 24.2915 38.7604 24.3806C38.1426 24.5152 37.8399 24.6727 37.8452 24.763C37.8983 25.4764 38.6082 25.9632 39.9766 26.2659C41.3502 26.6129 42.5717 26.7456 43.7312 26.6607L43.7168 26.7793L43.7168 26.7793C43.6619 27.2353 43.5789 27.9251 43.4037 28.884C43.361 29.1297 43.3182 29.3732 43.2758 29.6144L43.2753 29.6177L43.2752 29.6181C43.1297 30.446 42.989 31.2472 42.8726 32.0208C42.5929 33.7025 42.3646 35.4692 42.1858 37.2783C42.0087 39.1317 41.9008 40.7107 41.8636 42.0154C41.8276 42.712 41.8712 43.3193 41.9029 43.762V43.762V43.7621V43.7621V43.7622L41.9061 43.8068C41.8955 44.2564 41.9627 44.5662 42.0583 44.6494C42.1096 44.7344 42.1574 44.7751 42.2477 44.7698C42.4265 44.7556 42.7044 44.2865 43.0815 43.3165C43.5276 42.0703 44.2321 39.461 45.2801 35.432C45.8359 33.2369 46.3634 31.2685 46.8662 29.5691C47.3707 27.9157 47.6628 26.997 47.7867 26.8536C47.9141 26.7545 48.2186 26.6412 48.7001 26.4712C49.1851 26.3456 49.7144 26.2163 50.288 26.0836C51.4829 25.8605 52.8813 25.3525 54.5311 24.6019C56.0925 23.8584 57.6874 22.9769 59.2664 21.8723C60.2914 21.1677 61.5093 20.0454 62.9661 18.5C64.3823 17.0042 65.7047 15.4694 66.8482 13.9488C67.4642 13.1841 67.9917 12.4282 68.475 11.6741C68.9618 10.9643 69.2751 10.3571 69.5035 9.80127C70.2187 7.95318 70.5497 6.35823 70.4541 5.06244C70.4474 4.97921 70.4306 4.88619 70.4128 4.7878L70.4128 4.7877L70.4128 4.7876C70.3927 4.6768 70.3714 4.5592 70.362 4.4411C70.0806 3.07097 69.2911 2.09736 67.8979 1.4831C66.1879 0.801571 64.1894 1.0848 61.9465 2.32748C59.6594 3.5737 57.0891 5.82894 54.2284 9.00468C52.5715 10.8776 51.6864 11.6617 51.6227 11.3962C51.513 11.136 52.0511 9.3003 53.1823 5.80593C53.3258 5.33105 53.4701 4.87043 53.6099 4.42451L53.61 4.42416L53.61 4.42405L53.61 4.42401L53.6101 4.42372C53.8219 3.74792 54.0231 3.10589 54.1948 2.49919C54.4373 1.53797 54.5754 0.989212 54.563 0.810422ZM64.1309 4.54377C64.5257 4.42517 64.8762 4.31011 65.1824 4.19682C65.4444 4.08883 65.7082 4.02334 65.9755 4.00386L66.11 3.99324C66.5119 3.96315 66.834 4.07467 67.0288 4.28533C67.2306 4.58449 67.3527 5.0235 67.397 5.60412C67.4501 6.31751 67.2854 7.13889 66.9048 8.0647C66.526 8.99052 66.0109 9.92695 65.3258 10.9643C64.0743 12.8531 62.4138 14.6817 60.3976 16.5369C58.3353 18.3956 56.2447 19.8525 54.078 20.911C52.7786 21.5448 51.7378 22.0263 50.9907 22.2617C50.5517 22.3839 50.2419 22.4511 50.0632 22.4653L50.0549 22.4659C49.8368 22.4815 49.7062 22.4908 49.6118 22.4086C49.5641 22.3695 49.5606 22.3255 49.5541 22.2435L49.5533 22.2334C49.5374 22.0103 49.6401 21.5979 49.8614 20.9535C50.1605 20.1233 50.6261 19.1462 51.2156 18.0256C51.3424 17.8016 51.4683 17.5709 51.5967 17.3358C51.7908 16.98 51.9905 16.6143 52.2069 16.2466C52.5237 15.6836 52.8831 15.0747 53.2885 14.5047C54.8268 12.2371 56.6448 10.127 58.6593 8.22756C60.6755 6.37239 62.5165 5.15803 64.1309 4.54377ZM68.9442 29.5034C69.6593 30.0787 70.2187 30.3513 70.6276 30.4115C70.81 30.4416 71.0773 30.4221 71.5234 30.3885C72.0597 30.3495 72.8174 30.2929 73.7928 30.1318C74.862 30.0079 76.2286 29.6821 77.9846 29.1475C79.7442 28.6572 81.5374 28.0305 83.4173 27.3526C85.2105 26.7259 86.9577 26.0585 88.6996 25.3452C89.9984 24.8262 91.1318 24.3203 92.0598 23.8513C91.8161 24.2203 91.6461 24.5733 91.5396 24.911C91.3555 25.4633 91.2935 25.8261 91.3059 26.0049L91.3095 26.0492C91.3254 26.2722 91.4352 26.5342 91.729 26.8706C92.3309 27.7238 93.5948 27.8105 95.4323 27.1804C97.2751 26.5944 99.6843 25.2048 102.71 23.0044C103.183 22.6703 103.63 22.352 104.044 22.0577C104.375 21.8218 104.684 21.6014 104.968 21.4006C105.609 20.9492 105.953 20.7439 106.004 20.8306C106.011 20.9192 105.986 21.19 105.834 21.5617C105.689 22.0202 105.588 22.4769 105.491 22.9779C105.2 24.5251 105.243 25.6898 105.666 26.5555C106.045 27.4264 106.808 28.0424 107.912 28.4089C108.56 28.6744 109.284 28.7558 110.044 28.6992L110.178 28.6903C110.936 28.6337 112.125 28.3204 113.703 27.7999C115.149 27.3344 116.85 26.6688 118.845 25.7129C120.797 24.8047 122.568 23.8665 124.202 22.8929L124.232 22.8747C125.078 22.3686 125.842 21.9122 126.519 21.4644C127.158 21.013 127.668 20.6147 127.999 20.2323C128.152 20.0768 128.297 19.9409 128.425 19.8209C128.576 19.6787 128.704 19.5589 128.793 19.4552C128.561 19.5018 128.352 19.5466 128.166 19.5867C127.786 19.6684 127.499 19.7301 127.289 19.7455C126.85 19.8677 125.883 20.1633 124.352 20.6819C122.777 21.2466 121.166 21.9052 119.468 22.615C115.983 24.04 113.357 24.9534 111.591 25.3535C109.829 25.7978 108.751 25.789 108.357 25.3234C108.066 25.0313 107.985 24.5428 108.066 23.8187C108.109 23.1885 108.383 22.045 108.845 20.3952C109.164 19.2499 109.282 18.432 109.249 17.9859C109.127 17.5469 108.833 17.2088 108.318 16.9327C108.229 16.9397 108.137 16.9026 108.089 16.8601C108.043 16.8637 108.008 16.8549 107.973 16.8461C107.94 16.8376 107.906 16.8292 107.863 16.8318L107.817 16.8353C107.594 16.853 107.333 16.961 107.071 17.0707C106.724 17.2301 106.25 17.4903 105.692 17.8461C104.836 18.4037 104.101 18.7719 103.572 18.9011C103.046 19.0746 102.026 19.2392 100.598 19.3454C99.3055 19.4871 98.3266 19.6039 97.7088 19.7402C97.0485 19.9225 96.4413 20.1934 95.8801 20.5032C95.1022 20.951 94.3992 21.4626 93.7691 22.0053C93.3016 22.0365 92.6295 22.1435 91.7532 22.3358C89.898 22.743 86.6851 23.6086 82.1534 24.8424C79.9548 25.4549 77.9722 25.9612 76.1206 26.4126C74.2247 26.8675 73.0741 27.087 72.628 27.1207C71.2879 27.2198 70.509 27.0091 70.247 26.4887C69.939 25.9736 69.9762 24.6689 70.2718 22.5819C70.3763 21.587 70.4931 20.7249 70.6188 19.9974C70.6658 19.5704 70.7072 19.269 70.7326 19.0845L70.7326 19.0843L70.7327 19.0839L70.7327 19.0835C70.7503 18.9558 70.7601 18.8843 70.7586 18.8662C70.7552 18.8211 70.7092 18.7811 70.6174 18.7012L70.6117 18.6963C70.6005 18.6917 70.5885 18.6872 70.5761 18.6826L70.5421 18.6704C70.4585 18.6404 70.3596 18.605 70.286 18.5423L70.1957 18.5476C69.932 18.6131 69.6452 18.9937 69.2522 19.7407C68.8238 20.624 68.4468 21.5959 68.0768 22.6544C67.8626 23.3891 67.6891 24.0759 67.5599 24.7574C67.3864 25.4443 67.3368 25.986 67.3705 26.4338L67.3899 26.7011C67.443 27.4145 67.5263 27.9473 67.6838 28.2501C67.8449 28.597 68.2786 29.0148 68.9442 29.5034ZM71.141 16.1437C71.1853 16.1401 71.233 16.1826 71.233 16.1826L71.3676 16.172C71.5074 16.2516 71.6827 16.1932 71.8473 16.002C71.907 15.9335 72.0103 15.8385 72.1417 15.7179L72.1418 15.7177C72.1936 15.6702 72.2498 15.6186 72.3093 15.563C72.52 15.3683 72.7696 15.1258 73.0599 14.7895C74.007 13.6424 74.7664 12.3749 75.3435 11.0738C75.8745 9.77801 76.1878 8.54241 76.2392 7.41657C76.1259 7.11209 75.9276 6.85718 75.7294 6.60227C75.6803 6.55961 75.6192 6.51788 75.5584 6.47637L75.5583 6.47631C75.5006 6.43688 75.4431 6.39764 75.3966 6.35799C75.301 6.27479 75.1629 6.23938 75.0266 6.20575C74.7593 6.22522 74.5893 6.37215 74.4247 6.56333C74.2673 6.7926 74.1082 6.97888 73.9859 7.12215L73.9733 7.13687C73.9315 7.18498 73.9021 7.24339 73.8727 7.30195C73.8437 7.35978 73.8146 7.41776 73.7733 7.46613C73.6933 7.55808 73.6558 7.64676 73.6184 7.73531L73.614 7.74582C73.5485 8.06623 73.483 8.38487 73.3679 8.66279L73.2591 9.007L73.1502 9.3514C73.1017 9.50507 73.0335 9.66032 72.9593 9.82928L72.9592 9.82946C72.9223 9.91346 72.8839 10.0008 72.8457 10.0931L72.0155 12.2191C71.8531 12.616 71.7132 12.9727 71.5888 13.2897L71.5885 13.2905L71.5884 13.2906C71.4811 13.5642 71.3853 13.8082 71.2968 14.023C71.1109 14.531 71.0029 14.8974 70.9781 15.1683C70.9427 15.3063 70.9091 15.4427 70.8772 15.625C70.9003 15.9365 70.9587 16.1118 71.141 16.1437ZM100.155 21.0192C100.087 21.0349 100.024 21.0495 99.9604 21.0537C98.9921 21.3051 98.0292 21.6467 97.075 22.0769C96.1191 22.5053 95.3066 23.0593 94.6392 23.7373C93.8055 24.6082 93.3965 25.1322 93.4125 25.3553C93.4196 25.4438 93.5116 25.4827 93.6001 25.4756C93.6036 25.519 93.6461 25.5165 93.7327 25.5114L93.7382 25.5111C94.1843 25.4774 95.2252 24.9959 96.7741 24.0737C98.5815 23.0416 99.8719 22.2734 100.635 21.6768C101.062 21.3759 101.272 21.1811 101.262 21.0466C101.21 20.9616 101.026 20.8855 100.713 20.9085C100.67 20.912 100.616 20.9268 100.563 20.9417C100.507 20.9574 100.45 20.9731 100.405 20.9758C100.311 20.9832 100.23 21.0019 100.155 21.0192ZM25.7526 44.7751C25.7232 44.7627 25.689 44.7508 25.6516 44.7377C25.572 44.71 25.4777 44.6771 25.3826 44.6229L25.1596 44.6388L25.0251 44.6495C24.9808 44.653 24.9383 44.7008 24.9383 44.7008C24.8941 44.7043 24.8533 44.7521 24.8533 44.7521C24.7259 44.8513 24.5613 45.0424 24.409 45.4124C24.1665 45.7895 23.9328 46.2568 23.6602 46.8144C23.1132 47.9332 22.4954 49.2803 21.7643 50.9053C20.989 52.5782 20.265 54.2935 19.541 56.0531C18.7816 57.9047 18.0593 59.6643 17.3742 61.3301C16.6945 63.0418 16.1687 64.4279 15.843 65.4847C15.2819 67.0071 14.8004 68.3896 14.4446 69.627C14.0463 70.9139 13.7259 72.0592 13.4462 73.1125C12.9187 75.081 12.5044 76.7733 12.2053 78.1877C11.9096 79.6445 11.6069 81.0147 11.2989 82.2945C11.1467 82.6645 10.1784 82.9159 8.47545 82.953C6.73003 83.0363 4.83592 82.907 2.78957 82.5654C2.23829 82.5034 1.76706 82.4619 1.33369 82.4238C1.1979 82.4118 1.06582 82.4002 0.936168 82.3884C0.353772 82.3866 0.0404462 82.4114 0.00327208 82.5034L0.00681205 82.5477C-0.0285915 82.6858 0.07408 82.8575 0.313057 83.0628C0.60514 83.3567 0.939708 83.6452 1.41058 83.9249C2.16646 84.4524 3.36842 84.902 5.05542 85.2702C6.69994 85.642 8.23647 85.7978 9.62785 85.7836C10.3448 85.7765 10.7625 85.9695 10.9236 86.3164C11.0387 86.6669 11.0883 87.9202 11.1573 90.0693C11.1962 91.8164 11.3945 92.6555 11.7503 92.629L11.8849 92.6183C12.3186 92.4077 12.8089 91.1597 13.4462 88.8673C13.9454 87.1254 14.3171 86.0651 14.5543 85.6438C14.7951 85.2667 15.2677 84.9622 16.013 84.7268C17.9443 84.1355 19.6454 83.4699 21.2014 82.6822C22.7149 81.8962 23.9983 81.0377 25.0551 80.1526C26.9953 78.4815 28.084 76.8299 28.2273 75.1128C28.3282 73.4453 27.2874 72.1318 25.1029 71.1263C24.3187 70.8254 23.7151 70.5563 23.3416 70.3598C23.7711 69.9794 24.1758 69.6207 24.5566 69.2833L24.5576 69.2823C25.8933 68.0986 26.9347 67.1757 27.7211 66.4884C30.7499 63.7499 32.8653 61.3938 33.9752 59.4253C34.6939 58.2057 35.0196 57.1488 34.9488 56.2124C34.9098 55.676 34.7399 55.1945 34.439 54.7679C33.7344 53.743 32.5059 53.5199 30.7977 54.0952C29.0452 54.6741 26.9882 55.9947 24.6285 58.0552C23.8625 58.7113 23.2095 59.2382 22.6727 59.6714L22.6726 59.6715L22.5981 59.7316C22.0051 60.2237 21.6617 60.429 21.6103 60.3423C21.5218 60.3494 21.7325 59.5705 22.1591 58.0587C22.5893 56.5895 23.1292 54.7998 23.8249 52.6826C24.5878 50.2468 25.1667 48.3633 25.5136 46.9914C25.8181 45.6673 25.8995 44.9433 25.7526 44.7751ZM19.1462 67.6621C19.3675 67.0177 19.8437 66.1751 20.6226 65.1749C21.3554 64.1765 22.1803 63.1728 23.1805 62.1567C24.6816 60.6096 26.2376 59.1917 27.8928 57.903C29.5072 56.6603 30.7587 55.9841 31.6031 55.8761L31.7376 55.8672C32.228 55.83 32.5502 55.9416 32.7042 56.1982C32.7555 56.285 32.8104 56.416 32.8175 56.5045C32.8369 56.7718 32.7679 57.0462 32.6528 57.3241C32.2722 58.2499 31.2916 59.5351 29.7957 61.1725C28.261 62.8577 26.3297 64.6616 24.0444 66.5362C22.3078 67.9223 20.989 68.9171 20.0844 69.434C19.5693 69.7403 19.1745 69.8606 18.9515 69.8766C18.7284 69.8925 18.6311 69.8111 18.6187 69.6323C18.6116 69.542 18.6399 69.3154 18.7479 68.949C18.7936 68.7914 18.8474 68.6247 18.9053 68.4457C18.9819 68.2085 19.0655 67.9496 19.1462 67.6621ZM17.7584 74.364C17.8319 74.2777 18.0555 74.216 18.4213 74.1149L18.5443 74.0808C18.9851 73.9587 19.4719 73.8772 20.0048 73.794C20.2622 73.7744 20.5295 73.7441 20.8072 73.7127L20.8074 73.7127C21.1064 73.6788 21.4174 73.6436 21.7413 73.6188L22.8583 73.5374C23.8443 73.509 24.4745 73.5515 24.8002 73.7073C25.3561 73.9357 25.696 74.2684 25.726 74.6703C25.7291 74.7228 25.7167 74.7609 25.7064 74.7924C25.699 74.815 25.6927 74.8341 25.6942 74.8526C25.6446 75.3943 25.1578 76.1041 24.3311 77.0636C23.8355 77.6389 23.161 78.2266 22.3945 78.7772C21.582 79.3312 20.6774 79.8481 19.6366 80.3296C17.815 81.1829 16.7688 81.6183 16.5493 81.6803L16.4166 81.6909C16.1918 81.7068 16.0077 81.6307 15.8536 81.3723C15.8094 81.3758 15.8023 81.2873 15.7917 81.1528C15.7758 80.9297 15.7899 80.5243 15.9298 79.9756C16.0484 79.1595 16.2572 78.3346 16.5033 77.4194C16.721 76.7308 16.9423 76.0847 17.1671 75.4846C17.3919 74.8845 17.5884 74.511 17.7584 74.364ZM46.9415 78.124C46.0051 78.193 45.2333 78.0709 44.6668 77.7098C44.0596 77.3947 43.5569 76.6689 43.2064 75.5731C42.7674 74.4845 42.6435 73.4153 42.7462 72.3761C42.8045 71.9679 42.7781 71.6107 42.7551 71.2995L42.755 71.2981C42.6913 71.0326 42.6329 70.8573 42.5443 70.8644C42.4541 70.8715 42.1992 71.0697 41.8628 71.3636C41.4875 71.7513 41.1158 72.1832 40.7458 72.6594C39.7988 73.8065 38.749 74.7819 37.6002 75.6298C36.4106 76.5255 35.5467 76.9946 34.9661 77.0371C34.2527 77.0902 33.6084 76.8689 33.1145 76.2777C32.5781 75.6882 32.2984 74.9465 32.2312 74.0525C32.2028 73.6507 32.2099 73.1568 32.2524 72.5248C32.3017 71.9863 32.4332 71.3532 32.5652 70.7179L32.5675 70.7068C32.7693 69.7934 32.9729 68.926 33.272 68.0958C33.527 67.3134 33.7659 66.8921 33.9819 66.7859C34.5006 66.5239 34.8688 66.6319 35.0352 67.0673C35.1608 67.5524 35.1272 68.3171 34.9396 69.4093C34.6298 70.6891 34.4829 71.7318 34.543 72.5355C34.5607 73.3869 34.7325 73.8684 35.0121 74.026C35.2936 74.1853 36.0955 73.4967 37.4656 72.0044C38.7951 70.5599 40.2325 68.7472 41.7761 66.5681C42.7125 65.2865 43.4542 64.3784 43.9534 63.8473C44.4562 63.3623 44.927 63.0578 45.2846 63.0313C46.0883 62.9711 46.5609 63.295 46.745 63.9553C46.8867 64.6634 46.7663 66.0636 46.4264 68.1525C45.9219 71.0184 45.7927 72.9125 45.9555 73.8879C46.1202 74.9093 46.6919 75.3607 47.6744 75.2864C47.8532 75.274 48.5914 74.95 49.7951 74.2313C51.0059 73.6029 52.3814 72.7833 53.925 71.8168C55.4721 70.8927 56.8033 70.0767 57.9185 69.365C58.1186 69.2541 58.3021 69.1515 58.4691 69.0578C58.3298 68.723 58.2495 68.407 58.2255 68.0866C58.176 67.4157 58.4486 66.858 59.0894 66.4066C59.516 66.1057 59.994 65.8897 60.6118 65.7552C61.0508 65.6331 61.4951 65.5552 61.9854 65.518C62.0261 65.5148 62.076 65.5202 62.1309 65.5262C62.198 65.5335 62.2726 65.5415 62.3466 65.5357C63.4653 65.4985 64.508 65.6455 65.5205 65.9747C66.4906 66.3518 67.1084 66.7996 67.3261 67.3218C67.3845 67.4971 67.3049 67.6369 67.1332 67.7396C66.9154 67.8458 66.5596 67.8724 66.11 67.86C65.7082 67.8901 65.124 67.8883 64.3097 67.8139C63.4768 67.788 62.9036 67.8296 62.6265 67.8497H62.6264H62.6263L62.6068 67.8511C61.989 67.9874 61.5978 68.1503 61.5287 68.4247C61.3694 68.7061 61.4367 69.0159 61.7252 69.2637C61.8279 69.4355 62.0669 69.6408 62.5324 69.8762C62.9166 70.2073 63.3892 70.5312 63.9521 70.8481C64.7098 71.3756 65.5081 71.8553 66.3507 72.3315C66.6801 72.5294 66.954 72.7008 67.1752 72.8392L67.1755 72.8394L67.176 72.8397C67.4906 73.0365 67.6985 73.1666 67.8076 73.2113C68.1457 72.9157 68.7848 72.4643 69.6451 71.9527C70.5036 71.4393 71.5835 70.8658 72.8385 70.2338C75.138 69.1664 77.85 68.2016 81.0169 67.3378C84.0186 66.5211 86.8662 66.3589 89.6003 66.8497C89.8411 66.0689 90.0854 65.3321 90.3376 64.7166L90.3631 64.6429C90.5719 64.0403 90.7085 63.646 90.6881 63.389C90.5648 63.398 90.4407 63.3975 90.3077 63.3971H90.3076C90.1523 63.3965 89.9849 63.3959 89.7924 63.4102C89.3905 63.4403 89.1197 63.4155 89.0241 63.3323C88.4612 63.0155 88.2045 62.5853 88.1585 61.9604L88.1461 61.7817C88.1408 61.109 88.6984 60.7532 89.8614 60.7125L90.7554 60.647L91.6918 60.5761L92.3963 59.1777C92.543 58.8878 92.7026 58.5443 92.877 58.1691C92.9827 57.9418 93.0938 57.7028 93.2106 57.4571C93.9435 55.832 94.8923 54.1008 96.0607 52.3075C97.1847 50.5196 98.2787 48.9123 99.4293 47.4802C100.001 46.719 100.534 46.0517 101.072 45.4285C101.612 44.8497 102.115 44.3629 102.538 44.0177C102.959 43.6265 103.386 43.3255 103.818 43.1149C104.207 42.906 104.558 42.7909 104.913 42.7644L105.004 42.7573C105.896 42.6918 106.526 43.3185 106.804 44.6443C107.089 46.0587 106.71 47.613 105.669 49.3071C105.434 49.7726 105.11 50.2453 104.742 50.7214C104.375 51.2419 103.966 51.7659 103.552 52.2456C102.725 53.205 101.899 54.1645 100.977 55.0407C100.058 55.9612 99.3037 56.6906 98.6221 57.1898C97.5175 58.0341 96.7156 58.7227 96.1686 59.2131C95.6216 59.7017 95.3809 60.0787 95.3968 60.3018L97.0945 60.1761C97.8078 60.123 98.5212 60.0699 99.1497 60.0681C100.176 59.992 101.162 59.9637 102.106 59.9831C103.005 60.0061 103.469 60.1973 103.4 60.4717C103.416 60.6947 103.032 60.9479 102.331 61.1798C101.587 61.4595 100.575 61.7126 99.3373 61.9852C98.5885 62.1746 97.7954 62.3676 96.9971 62.5181C96.1419 62.6669 95.3726 62.8537 94.6047 63.0402L94.5241 63.0597C94.4263 63.2978 94.3152 63.5782 94.1872 63.9008L94.1869 63.9017L94.1862 63.9036C94.0157 64.3336 93.8154 64.8388 93.5771 65.4194C93.3876 65.8814 93.2 66.3895 93.0619 66.9382C92.9256 67.533 92.7911 68.1261 92.699 68.7155C92.4671 69.8113 92.3202 70.8539 92.3025 71.8435C92.2423 72.8348 92.2884 73.4597 92.4424 73.7181C92.653 74.15 92.9008 74.4474 93.1805 74.605C93.462 74.7643 94.3347 74.4297 95.8411 73.5553C96.443 73.1959 97.2591 72.6879 98.2008 72.0789L98.5889 71.8283C99.4452 71.2757 100.435 70.6369 101.582 69.852C104.529 67.8393 106.898 66.4957 108.645 65.8283C109.724 65.4147 110.607 65.1364 111.305 64.9812C111.416 64.7351 111.536 64.4793 111.666 64.2125C112.167 63.099 112.824 62.2865 113.596 61.7802C113.98 61.5271 114.417 61.3607 114.863 61.3271L114.952 61.3218C115.4 61.2881 115.906 61.474 116.472 61.8369C117.604 62.5609 118.239 63.2761 118.388 64.0726C118.492 64.8745 118.542 65.5437 118.538 66.0818C119.084 66.1756 120.199 66.0942 121.882 65.7897C123.482 65.5809 125.385 65.2162 127.554 64.786C129.586 64.3647 131.404 64.0514 132.912 63.8036C133.508 63.724 133.986 63.6673 134.354 63.6328C134.16 63.2236 134.051 62.8476 134.023 62.4652C133.973 61.7943 134.246 61.2367 134.887 60.7853C135.313 60.4844 135.791 60.2684 136.409 60.1339C136.848 60.0117 137.292 59.9338 137.783 59.8967C137.823 59.8935 137.873 59.8989 137.928 59.9049C137.995 59.9121 138.07 59.9202 138.144 59.9144C139.262 59.8772 140.305 60.0241 141.318 60.3534C142.288 60.7304 142.906 61.1783 143.123 61.7005C143.182 61.8758 143.102 62.0156 142.93 62.1183C142.713 62.2245 142.357 62.251 141.907 62.2386C141.505 62.2687 140.921 62.267 140.107 62.1926C139.274 62.1667 138.7 62.2083 138.423 62.2284L138.404 62.2298C137.786 62.3661 137.395 62.529 137.326 62.8033C137.167 63.0848 137.234 63.3946 137.522 63.6424C137.625 63.8141 137.864 64.0195 138.33 64.2549C138.714 64.5859 139.186 64.9099 139.749 65.2267C140.507 65.7543 141.305 66.234 142.148 66.7102C142.477 66.9081 142.751 67.0795 142.972 67.2179C143.287 67.415 143.496 67.5452 143.605 67.59C143.943 67.2943 144.582 66.8429 145.442 66.3314C146.301 65.818 147.381 65.2444 148.636 64.6125C150.935 63.5451 153.647 62.5803 156.814 61.7164C159.983 60.8544 162.98 60.7216 165.853 61.3164L165.859 61.3215C165.95 61.4013 165.996 61.4412 166 61.4845C166.012 61.6633 165.761 61.9058 165.15 62.1324C164.283 62.5555 162.967 62.9662 161.252 63.453C160.156 63.8035 159.06 64.154 157.922 64.5523C156.786 64.9506 155.647 65.3507 154.603 65.7861C152.555 66.611 150.73 67.42 149.169 68.1635C147.522 68.9601 146.49 69.5744 146.071 69.9656C146.405 70.2541 146.706 70.6807 146.929 71.2472C147.154 71.8597 147.234 72.3483 147.26 72.7041C147.269 73.4228 147.22 73.9645 147.112 74.3309C146.963 74.7469 146.722 75.1239 146.391 75.5063C145.724 76.1843 144.94 76.5118 143.957 76.5861L143.824 76.595C142.753 76.6746 141.967 76.3737 141.381 75.7435C140.806 75.2478 140.53 74.5504 140.509 73.6547C140.491 72.8032 140.737 71.8862 141.203 70.9091C141.266 70.7775 141.348 70.6153 141.445 70.4257C141.587 70.1461 141.76 69.8068 141.944 69.4186C141.869 69.3701 141.77 69.3086 141.655 69.2366C141.484 69.13 141.275 69.0004 141.05 68.8557C140.805 68.7558 140.483 68.5555 140.057 68.29C139.999 68.2543 139.94 68.2174 139.879 68.1794C139.319 67.9068 138.76 67.6342 138.287 67.3103C136.575 66.3669 135.376 65.3543 134.694 64.2702C134.559 64.3603 134.406 64.4511 134.231 64.5556L134.224 64.5594C133.537 64.9701 132.585 65.4445 131.454 65.9331C130.323 66.4199 129.188 66.8643 128.048 67.2165C127.522 67.3918 126.952 67.5688 126.288 67.7069C125.584 67.8945 124.922 68.0326 124.214 68.1742C122.843 68.4557 121.51 68.6451 120.264 68.7814C119.018 68.9195 118.211 68.9336 117.929 68.7761C117.82 68.9344 117.693 69.1352 117.549 69.3643L117.549 69.3646C117.479 69.4761 117.405 69.5944 117.326 69.7178C117.096 70.1772 116.812 70.5084 116.567 70.7936L116.554 70.8083C115.766 71.6739 114.957 72.2722 114.122 72.5147C113.861 72.6227 113.596 72.6882 113.373 72.7041C112.792 72.7466 112.288 72.605 111.815 72.2811C111.203 71.8775 110.792 71.1906 110.533 70.132C110.419 69.7825 110.392 69.4258 110.362 69.0253V69.0252L110.362 69.0221C110.316 68.3972 110.355 67.721 110.532 67.0802C110.583 66.879 110.644 66.6717 110.716 66.4569C110.414 66.6381 110.083 66.8352 109.723 67.0498C108.348 67.8694 106.806 68.8819 105.151 70.1724C102.649 72.1533 100.822 73.5446 99.6701 74.3483C98.477 75.1998 97.452 75.9043 96.5103 76.5133C95.1401 77.4231 93.8373 78.0126 92.6831 78.1879L92.3273 78.2144C91.3041 78.3348 90.4704 77.9931 89.872 77.1842C89.5322 76.8514 89.2949 76.0601 89.1569 74.8139C88.9781 73.6154 88.9267 72.3179 89.0029 70.9194C88.994 70.2025 89.0347 69.5263 89.1604 68.7987C89.2085 68.4477 89.2706 68.095 89.3475 67.7563C88.4801 68.1785 87.1667 68.5885 85.4547 69.0743L85.4545 69.0744C84.3588 69.4249 83.2632 69.7754 82.125 70.1736C80.9885 70.5719 79.8503 70.972 78.8059 71.4075C76.7578 72.2324 74.9327 73.0414 73.3714 73.7848C71.7251 74.5814 70.693 75.1957 70.2735 75.5869C70.6081 75.8754 70.909 76.3021 71.1321 76.8685C71.3569 77.481 71.4365 77.9696 71.4631 78.3254C71.4719 79.0441 71.4224 79.5858 71.3144 79.9522C71.1657 80.3682 70.9249 80.7453 70.5939 81.1276C69.9266 81.8056 69.1424 82.1331 68.1599 82.2075L68.0271 82.2163C66.9562 82.296 66.1702 81.995 65.5843 81.3648C65.0089 80.8692 64.7328 80.1717 64.7115 79.276C64.6938 78.4245 64.9399 77.5076 65.4055 76.5304C65.4684 76.3988 65.551 76.2366 65.6475 76.0471C65.7898 75.7674 65.9625 75.4282 66.1472 75.0399C66.0717 74.9915 65.9732 74.9301 65.8579 74.8583L65.8576 74.8581C65.6865 74.7515 65.4784 74.6218 65.2532 74.477C65.0083 74.3771 64.6863 74.1769 64.2594 73.9114L64.0814 73.8008C63.522 73.5282 62.9626 73.2555 62.4899 72.9316C60.7551 71.9756 59.5473 70.9485 58.8698 69.848C57.9773 70.7844 56.926 71.8126 55.7111 72.8948L55.6446 72.9538L55.6445 72.9538C54.7817 73.7183 53.9214 74.4805 53.0965 75.1536C52.9447 75.2669 52.7975 75.3775 52.6543 75.485L52.6512 75.4874C51.9125 76.0421 51.2832 76.5147 50.7085 76.8583C49.6393 77.5646 48.5453 77.9611 47.4336 78.0886L46.9415 78.124ZM68.0643 79.7008L68.0201 79.7026C67.7067 79.7274 67.5155 79.561 67.4855 79.1592C67.4412 79.1627 67.4377 79.1185 67.4341 79.0742C67.404 78.6724 67.6713 78.0245 68.236 77.173C68.76 77.5837 69.0609 78.0103 69.0875 78.3679C69.1016 78.5467 69.0662 78.683 68.9866 78.8246C68.714 79.3822 68.4219 79.6743 68.0643 79.7008ZM103.628 46.0021C103.333 46.2481 103.039 46.5385 102.706 46.8783C102.45 47.1737 102.172 47.5251 101.831 47.9562L101.831 47.9567L101.831 47.9568L101.829 47.959C101.766 48.0392 101.7 48.1223 101.632 48.2082C101.593 48.2573 101.553 48.3073 101.513 48.3582C101.272 48.685 101.021 49.0126 100.769 49.3405L100.768 49.3413L100.768 49.3414C100.509 49.6793 100.249 50.0174 100.001 50.355C99.2293 51.4437 98.5389 52.4385 97.891 53.3838C97.2467 54.3751 96.9741 54.9327 96.9847 55.0673C96.99 55.1558 96.9935 55.2018 97.0838 55.1947C97.2626 55.1806 97.7335 54.8779 98.4009 54.1999C99.3231 53.3236 100.194 52.3606 101.097 51.2171C102.12 49.8841 102.934 48.7459 103.531 47.7139C104.048 46.8235 104.317 46.2198 104.29 45.8622C104.29 45.8622 104.243 45.8215 104.241 45.7773L104.237 45.7312L104.189 45.6905L104.143 45.6941C104.011 45.7029 103.839 45.8056 103.628 46.0021ZM114.384 63.338L114.518 63.3274C114.54 63.3265 114.561 63.3139 114.582 63.3012C114.604 63.2883 114.626 63.2752 114.649 63.2743L114.916 63.253C115.453 63.2141 115.963 63.446 116.354 63.8655C116.596 64.1169 116.754 64.4196 116.773 64.6869C116.793 64.9542 116.724 65.2286 116.565 65.51C116.154 65.4056 115.729 65.1241 115.246 64.6657C114.766 64.2532 114.462 63.7806 114.384 63.338ZM112.824 70.1409C112.543 69.9833 112.42 69.5426 112.371 68.8734L112.369 68.8444C112.353 68.6272 112.335 68.3676 112.353 68.022C112.403 66.8961 112.656 66.0694 113.067 65.5455C113.43 66.1916 113.87 66.6979 114.439 67.105C114.962 67.5139 115.387 67.7971 115.665 67.9104C115.676 68.045 115.6 68.2308 115.44 68.5105C115.361 68.6221 115.288 68.7332 115.219 68.8384C115.112 69.0021 115.014 69.1519 114.913 69.2682C114.585 69.6966 114.249 69.9904 113.858 70.1551C113.687 70.256 113.513 70.2697 113.38 70.2802L113.373 70.2807C113.15 70.2967 112.967 70.2666 112.824 70.1409ZM143.817 74.0813L143.861 74.0795C144.219 74.053 144.511 73.7609 144.784 73.2033C144.863 73.0617 144.899 72.9253 144.885 72.7466C144.858 72.389 144.557 71.9624 144.033 71.5517C143.469 72.4031 143.201 73.051 143.231 73.4529C143.235 73.4971 143.238 73.5414 143.283 73.5378C143.313 73.9397 143.504 74.1061 143.817 74.0813Z" fill="white"/>
</svg>
