<svg width="116" height="91" viewBox="0 0 116 91" fill="none" xmlns="http://www.w3.org/2000/svg">
<path id="Reco" fill-rule="evenodd" clip-rule="evenodd" d="M89.4413 11.1826C90.8162 10.6417 92.6439 10.208 94.4326 9.78358L94.4334 9.78342C94.8217 9.69127 95.2081 9.59956 95.5877 9.50729C97.4255 9.06165 99.1495 8.58644 100.865 8.11358L100.865 8.11354L100.865 8.1135L100.865 8.11346C101.533 7.92943 102.199 7.74576 102.871 7.56433C104.885 7.02105 106.984 6.50243 109.084 5.98382L109.084 5.98379C110.466 5.6423 111.848 5.30081 113.206 4.95229C114.91 4.51517 116.147 4.11909 115.965 3.43575C115.711 2.48478 115.797 1.5249 115.945 0.568586C116.018 0.104701 115.34 0.00835394 113.752 0.0208432C111.755 0.0374949 109.756 0.031945 107.756 0.0263945C106.756 0.0236189 105.756 0.0208432 104.757 0.0208432H95.536C95.4112 0.0208432 95.2733 0.0158405 95.1327 0.0107369C94.7225 -0.00414594 94.2887 -0.019887 94.0854 0.0850708C93.3534 0.461765 92.2096 0.735069 91.0638 1.00884L91.0637 1.00886C90.5814 1.12409 90.0988 1.2394 89.6464 1.36254C89.0381 1.53349 88.3972 1.69611 87.7601 1.85781L87.7599 1.85785C86.7545 2.11298 85.7582 2.3658 84.913 2.64536C83.8433 2.96712 82.7554 3.22509 81.6551 3.41791C80.8444 3.57193 80.2543 3.76549 79.6674 3.95803C79.1461 4.12904 78.6272 4.29924 77.9583 4.44024C76.93 4.65769 75.9854 4.9183 75.0407 5.17894C74.6135 5.29681 74.1863 5.41469 73.7512 5.52858C73.3188 5.64145 72.8943 5.75697 72.4697 5.87251L72.4696 5.87254C71.4175 6.15882 70.3649 6.44527 69.1891 6.69186C68.2203 6.89526 68.4505 7.06654 69.0553 7.19143C69.9949 7.38759 70.8014 7.61415 71.6069 7.84044C71.9883 7.94759 72.3696 8.05468 72.7646 8.15845C75.1724 8.79396 77.6237 9.41847 80.0759 10.0432C81.9264 10.5146 83.7774 10.9862 85.6106 11.4627L88.2155 11.4431C88.629 11.3814 89.0384 11.2944 89.4413 11.1826ZM83.9104 33.5732V33.6535C83.9104 41.8322 90.4868 48.2837 99.2507 48.2837C108.015 48.2837 114.909 41.759 114.909 33.5804V33.5001C114.909 25.3161 108.211 18.8699 99.4505 18.8699C90.6902 18.8699 83.9104 25.3964 83.9104 33.5732ZM105.333 33.5732V33.6535C105.322 37.0024 103.588 40.0373 99.4452 39.9392C95.8001 39.85 93.4807 36.9168 93.4807 33.5732V33.4929C93.4807 30.1904 95.7573 27.2091 99.3684 27.2091C103.014 27.2091 105.333 30.2297 105.333 33.5732ZM55.3864 33.6535C55.3864 25.9726 61.3045 19.4746 69.0211 18.9233C75.3852 18.4684 79.8242 20.9823 82.5237 24.8825C82.6379 25.0447 82.7171 25.229 82.7561 25.4235C82.7952 25.618 82.7932 25.8186 82.7504 26.0123C82.7076 26.2061 82.6249 26.3887 82.5075 26.5487C82.3901 26.7087 82.2407 26.8424 82.0687 26.9414L76.7162 30.053C76.4131 30.23 76.0554 30.2891 75.7114 30.219C75.3675 30.1489 75.0614 29.9545 74.8517 29.673C73.8419 28.2456 72.4574 27.3304 70.3556 27.3304C67.1441 27.3304 65.0406 30.1101 65.0406 33.4929V33.5732C65.0406 37.2397 67.2315 39.8178 70.3556 39.8178C72.5359 39.8178 73.9365 38.8561 75.0177 37.3681C75.2222 37.0779 75.5265 36.8732 75.8725 36.7932C76.2184 36.7132 76.5817 36.7635 76.8928 36.9346L82.2311 39.9284C82.4057 40.024 82.5584 40.1551 82.6793 40.3133C82.8003 40.4714 82.8868 40.6531 82.9333 40.8466C82.9799 41.0402 82.9854 41.2414 82.9496 41.4372C82.9138 41.6331 82.8374 41.8192 82.7253 41.9838C80.2685 45.5521 76.4236 48.2766 70.1237 48.2766C62.243 48.2766 55.3864 42.3959 55.3864 33.6535ZM52.2509 19.4758H30.889C30.5138 19.4758 30.1537 19.6235 29.8866 19.8869C29.6195 20.1504 29.4668 20.5084 29.4617 20.8835V46.2188C29.4617 46.5973 29.612 46.9604 29.8797 47.2281C30.1474 47.4957 30.5104 47.6461 30.889 47.6461H52.4543C52.8328 47.6461 53.1959 47.4957 53.4636 47.2281C53.7313 46.9604 53.8816 46.5973 53.8816 46.2188V41.3444C53.8816 40.9659 53.7313 40.6028 53.4636 40.3352C53.1959 40.0675 52.8328 39.9171 52.4543 39.9171H40.2202C39.8417 39.9171 39.4786 39.7667 39.2109 39.499C38.9433 39.2314 38.7929 38.8683 38.7929 38.4898V38.2881C38.7929 37.9096 38.9433 37.5465 39.2109 37.2789C39.4786 37.0112 39.8417 36.8608 40.2202 36.8608H51.2375C51.616 36.8608 51.9791 36.7104 52.2468 36.4427C52.5144 36.1751 52.6648 35.812 52.6648 35.4335V31.4869C52.6648 31.1083 52.5144 30.7453 52.2468 30.4776C51.9791 30.2099 51.616 30.0595 51.2375 30.0595H40.2202C39.8417 30.0595 39.4786 29.9092 39.2109 29.6415C38.9433 29.3738 38.7929 29.0108 38.7929 28.6322C38.7929 28.2536 38.9433 27.8906 39.2109 27.6229C39.4786 27.3552 39.8417 27.2049 40.2202 27.2049H52.2509C52.6295 27.2049 52.9925 27.0545 53.2602 26.7868C53.5279 26.5191 53.6782 26.1561 53.6782 25.7775V20.9032C53.6782 20.5246 53.5279 20.1616 53.2602 19.8939C52.9925 19.6262 52.6295 19.4758 52.2509 19.4758ZM0.44773 20.9036C0.44773 20.5251 0.598109 20.162 0.865787 19.8943C1.13347 19.6267 1.49652 19.4763 1.87507 19.4763H14.3215C19.3528 19.4763 22.5572 20.7252 24.5466 22.6985C26.2504 24.3917 27.1425 26.4863 27.1425 29.3856V29.4659C27.1425 33.0342 25.5279 35.648 22.8605 37.3608C22.6972 37.4631 22.5563 37.5974 22.4463 37.7557C22.3363 37.9139 22.2594 38.0928 22.2204 38.2815C22.1814 38.4702 22.181 38.6649 22.2193 38.8538C22.2575 39.0427 22.3336 39.2218 22.443 39.3805L26.618 45.4324C26.7668 45.6469 26.8539 45.898 26.8699 46.1585C26.8859 46.419 26.8301 46.6789 26.7087 46.91C26.5873 47.141 26.4049 47.3343 26.1813 47.4689C25.9577 47.6035 25.7014 47.6742 25.4404 47.6733H18.0932C17.8575 47.6734 17.6255 47.6151 17.4178 47.5036C17.2102 47.3922 17.0334 47.231 16.9032 47.0346L11.9717 39.6178H11.3722C10.9937 39.6178 10.6306 39.7682 10.3629 40.0359C10.0953 40.3035 9.94488 40.6666 9.94488 41.0451V46.2406C9.94488 46.6192 9.7945 46.9823 9.52682 47.2499C9.25915 47.5176 8.8961 47.668 8.51754 47.668H1.87864C1.50008 47.668 1.13703 47.5176 0.869356 47.2499C0.601678 46.9823 0.451297 46.6192 0.451297 46.2406L0.44773 20.9036ZM14.0342 32.8879C16.3055 32.8879 17.6846 31.8816 17.6846 30.1492V30.0689C17.6846 28.2562 16.2573 27.3695 14.0752 27.3695H11.3722C10.9937 27.3695 10.6306 27.5198 10.3629 27.7875C10.0953 28.0552 9.94488 28.4182 9.94488 28.7968V31.4552C9.94488 31.8338 10.0953 32.1968 10.3629 32.4645C10.6306 32.7322 10.9937 32.8825 11.3722 32.8825L14.0342 32.8879ZM21.53 80.3357C23.3314 79.9089 25.176 79.4718 26.5611 78.9284C26.9681 78.8188 27.3816 78.7354 27.7993 78.6786L30.406 78.659C32.2824 79.1477 34.1796 79.631 36.0767 80.1142L36.0781 80.1145C38.4809 80.7265 40.8834 81.3384 43.2431 81.9615C43.6265 82.0627 43.9969 82.1668 44.3671 82.2708C45.184 82.5003 46.0002 82.7296 46.9542 82.9285C47.559 83.0552 47.7892 83.2247 46.8186 83.4281C45.6479 83.6751 44.5979 83.9608 43.5489 84.2463L43.5485 84.2464L43.5482 84.2465L43.5474 84.2467L43.5469 84.2468L43.5463 84.247L43.5458 84.2471L43.5453 84.2472L43.5448 84.2474L43.5442 84.2475L43.5437 84.2476L43.5432 84.2478L43.5427 84.2479L43.5421 84.2481L43.5416 84.2482L43.5411 84.2483C43.1154 84.3642 42.6899 84.48 42.2564 84.5931C41.8955 84.6899 41.54 84.7883 41.1855 84.8864L41.1854 84.8864L41.1853 84.8864L41.1853 84.8865L41.1848 84.8866L41.1844 84.8867L41.1836 84.8869C40.1667 85.1683 39.1579 85.4474 38.0511 85.6815C37.3906 85.8247 36.8763 85.9925 36.3621 86.1603L36.362 86.1603C35.7679 86.3541 35.1739 86.5479 34.3543 86.7038C33.2515 86.8956 32.1612 87.1536 31.0893 87.4764C30.2066 87.7691 29.1511 88.0337 28.0919 88.2993C27.5047 88.4465 26.9165 88.594 26.3559 88.7467C25.8996 88.8716 25.4121 88.9883 24.9251 89.105L24.9248 89.105C23.784 89.3783 22.6458 89.6508 21.9169 90.0259C21.7144 90.1305 21.2831 90.1143 20.875 90.099C20.733 90.0936 20.5939 90.0884 20.4681 90.0884H11.2457C10.2459 90.0884 9.24593 90.0858 8.246 90.0832H8.24358H8.24339H8.24319H8.24299H8.24279H8.2426H8.2424H8.2422H8.242H8.24181H8.24161H8.24141H8.24121H8.24102C6.24302 90.0781 4.24528 90.0729 2.24992 90.0884C0.663794 90.1027 -0.0141903 90.0045 0.0571766 89.5406C0.207047 88.5861 0.292687 87.6262 0.0375506 86.6735C-0.144435 85.9919 1.092 85.5941 2.79588 85.1587C4.15237 84.8106 5.53355 84.4694 6.91472 84.1283C9.01605 83.6093 11.1173 83.0903 13.1316 82.5467C13.8222 82.3602 14.5073 82.1711 15.1938 81.9817L15.1952 81.9813L15.1956 81.9812L15.196 81.9811L15.1962 81.981L15.1964 81.981L15.1966 81.9809L15.1967 81.9809L15.1968 81.9809C16.8931 81.5128 18.5978 81.0425 20.4146 80.6019C20.7815 80.5131 21.1548 80.4246 21.53 80.3357ZM113.057 80.0682L113.057 80.0681L113.066 80.0659C113.894 79.8672 114.75 79.6616 115.637 79.4429C115.637 80.2919 115.636 81.132 115.635 81.9655V81.9716V81.9776V81.9837V81.9897V81.9957V82.0017V82.0078C115.633 84.6417 115.631 87.2102 115.651 89.7858C115.655 90.0623 115.221 90.098 114.329 90.098L111.323 90.0948C105.058 90.0878 98.7916 90.0808 92.5281 90.1069C91.4713 90.1122 90.9762 89.9469 90.5303 89.798C90.3694 89.7442 90.2149 89.6926 90.0427 89.652C89.187 89.4468 88.3809 89.2288 87.574 89.0106L87.5736 89.0105C86.5771 88.7409 85.5792 88.4711 84.485 88.2246C83.5608 88.0159 83.3646 87.7358 84.6135 87.4432C87.2989 86.8202 89.8423 86.1587 92.3844 85.4977L92.6423 85.4306C94.281 85.0047 95.8945 84.5721 97.5078 84.1395L97.5112 84.1386C98.6474 83.8339 99.7834 83.5293 100.928 83.2272C101.795 82.995 102.668 82.7666 103.54 82.5387L103.54 82.5387C105.045 82.145 106.544 81.7528 107.999 81.3449C109.552 80.9097 111.234 80.5058 113.057 80.0682ZM1.58369 71.7903V54.5837H8.3243C9.21154 54.5633 10.0909 54.7541 10.8899 55.1404C11.5936 55.4878 12.1807 56.0328 12.5795 56.7086C12.9837 57.4138 13.189 58.2154 13.1737 59.0281C13.1747 59.5543 13.0685 60.0751 12.8614 60.5589C12.6595 61.0381 12.371 61.4759 12.0104 61.8506C11.6731 62.2079 11.2639 62.4895 10.8096 62.6767C11.4186 62.8182 11.9854 63.1019 12.4636 63.5046C12.9657 63.922 13.3675 64.447 13.6393 65.0407C13.9259 65.6582 14.0721 66.3315 14.0675 67.0122C14.0885 67.908 13.8506 68.7908 13.3824 69.5547C12.9364 70.2662 12.3022 70.8405 11.5501 71.214C10.7745 71.5999 9.91852 71.7968 9.05224 71.7885L1.58369 71.7903ZM8.21011 62.0183C8.72694 62.0204 9.23573 61.8904 9.68818 61.6406C10.1406 61.3907 10.5218 61.0295 10.7954 60.591C11.0595 60.1618 11.1991 59.6676 11.1986 59.1637C11.2062 58.6592 11.0833 58.1614 10.8418 57.7185C10.6003 57.286 10.2424 56.93 9.80873 56.6908C9.33208 56.4308 8.79578 56.2998 8.25293 56.3108H3.5445V62.0308L8.21011 62.0183ZM8.92377 70.065C9.48676 70.0721 10.0413 69.9279 10.5295 69.6475C11.0021 69.3746 11.3899 68.9763 11.65 68.4967C11.9234 67.9888 12.0622 67.4194 12.0532 66.8428C12.0576 66.2796 11.9123 65.7255 11.6322 65.237C11.3496 64.7457 10.9356 64.3428 10.4368 64.0737C9.89587 63.7815 9.28866 63.634 8.67399 63.6455H3.5445V70.0685L8.92377 70.065ZM19.6012 65.4764C20.1951 67.7491 21.6627 69.6952 23.6844 70.8912L23.6879 70.8877C25.7287 72.0561 28.1477 72.3732 30.4206 71.7704C32.6936 71.1676 34.6375 69.6934 35.831 67.6672C36.6019 66.2967 37.0069 64.7507 37.0069 63.1783C37.0069 61.6058 36.6019 60.0598 35.831 58.6893C35.0665 57.3512 33.9576 56.2422 32.6195 55.4778C30.5769 54.3177 28.1589 54.0114 25.8915 54.6254C23.6242 55.2394 21.6912 56.7241 20.5131 58.7563C19.335 60.7885 19.0073 63.2038 19.6012 65.4764ZM34.0767 66.659C33.4789 67.715 32.6123 68.594 31.5651 69.207H31.5668C30.5297 69.8089 29.3519 70.1259 28.1528 70.1259C26.9537 70.1259 25.7759 69.8089 24.7388 69.207C23.6936 68.592 22.8288 67.7125 22.2318 66.6569C21.6348 65.6013 21.3266 64.407 21.3382 63.1943C21.3259 61.9595 21.6431 60.7438 22.257 59.6724C22.8474 58.6297 23.703 57.7618 24.737 57.1567C25.7741 56.5548 26.9519 56.2377 28.151 56.2377C29.3502 56.2377 30.528 56.5548 31.5651 57.1567C32.6021 57.7604 33.4604 58.6285 34.0522 59.6724C34.6656 60.7439 34.9821 61.9597 34.9693 63.1943C34.9825 64.4077 34.6746 65.603 34.0767 66.659ZM56.3671 71.7905H54.2724L52.7042 67.7493H44.3524L42.7842 71.7905H40.6895L47.6103 54.5714H49.448L56.3671 71.7905ZM48.4186 57.2905L45.0625 65.9241H51.9816L48.6273 57.2905L48.5274 56.9836L48.4186 57.2905ZM72.3486 71.7903H74.6145L71.4405 65.0675C72.3777 64.6799 73.1774 64.0206 73.7367 63.1745C74.2886 62.3371 74.5645 61.319 74.5645 60.12C74.5847 59.1043 74.3386 58.1011 73.8509 57.21C73.3843 56.3813 72.6861 55.7067 71.8419 55.2688C70.907 54.7964 69.8703 54.5611 68.8231 54.5837H62.1235V71.7903H64.1325V65.6545H68.3324C68.7255 65.656 69.1183 65.6316 69.5082 65.5813L72.3486 71.7903ZM68.65 63.8543H64.1325V56.441H68.65C69.3556 56.425 70.0548 56.5779 70.6893 56.8871C71.2572 57.1703 71.7284 57.6155 72.0435 58.1663C72.3565 58.7732 72.5197 59.4461 72.5197 60.1289C72.5197 60.8117 72.3565 61.4846 72.0435 62.0915C71.7296 62.6495 71.2587 63.103 70.6893 63.3957C70.0573 63.7132 69.3571 63.8707 68.65 63.8543ZM81.1435 71.7905V54.584H87.0313C88.5972 54.5691 90.1398 54.964 91.506 55.7294C92.8369 56.465 93.9488 57.5406 94.7282 58.8464C95.5016 60.1658 95.9094 61.6676 95.9094 63.1971C95.9094 64.7265 95.5016 66.2283 94.7282 67.5478C93.9501 68.8476 92.8421 69.9186 91.5167 70.6522C90.1577 71.4138 88.6229 71.8063 87.0652 71.7905H81.1435ZM87.1205 69.8815C88.3175 69.8949 89.4966 69.5901 90.5372 68.9983C91.5585 68.4178 92.406 67.5747 92.9917 66.5564C93.5774 65.538 93.88 64.3816 93.8682 63.2069C93.8797 62.0162 93.5683 60.8448 92.9672 59.8169C92.3812 58.8045 91.5331 57.9688 90.5122 57.3976C89.4626 56.806 88.2753 56.5019 87.0705 56.5162H83.1453V69.8975L87.1205 69.8815ZM100.702 68.9945C101.493 69.9731 102.512 70.7426 103.67 71.2354C104.859 71.7583 106.144 72.0269 107.442 72.024C108.51 72.04 109.571 71.8397 110.559 71.4352C111.441 71.0761 112.202 70.4741 112.755 69.6992C113.305 68.9078 113.589 67.9615 113.564 66.998C113.564 66.0274 113.307 65.2293 112.793 64.6036C112.262 63.9667 111.59 63.4616 110.83 63.1281C109.834 62.701 108.809 62.3433 107.763 62.0576C106.725 61.7811 105.929 61.5366 105.374 61.3297C104.856 61.1445 104.384 60.85 103.99 60.4661C103.805 60.2752 103.661 60.0486 103.566 59.8001C103.471 59.5517 103.428 59.2866 103.439 59.0209C103.431 58.4727 103.621 57.9399 103.974 57.5205C104.358 57.0719 104.855 56.7338 105.414 56.5409C106.053 56.31 106.729 56.1957 107.408 56.2037C108.244 56.206 109.073 56.3614 109.853 56.6623C110.614 56.9441 111.314 57.3679 111.917 57.9112L113.116 56.5267C112.353 55.8231 111.459 55.2774 110.484 54.9209C109.473 54.5415 108.402 54.3486 107.323 54.3518C106.269 54.3307 105.222 54.5306 104.25 54.9388C103.421 55.2825 102.703 55.848 102.174 56.5731C101.684 57.2703 101.426 58.1046 101.438 58.9567C101.438 59.9451 101.695 60.7516 102.209 61.3761C102.718 61.9958 103.367 62.4851 104.102 62.8034C104.989 63.1764 105.905 63.4795 106.839 63.7098C107.72 63.9325 108.589 64.2005 109.442 64.5126C110.012 64.718 110.531 65.0456 110.961 65.4725C111.157 65.6823 111.309 65.929 111.409 66.1983C111.509 66.4675 111.554 66.7539 111.542 67.0408C111.56 67.6466 111.371 68.2404 111.007 68.7251C110.627 69.2041 110.12 69.5669 109.544 69.7724C108.873 70.0178 108.163 70.1387 107.449 70.1292C106.417 70.1282 105.396 69.9156 104.448 69.5047C103.509 69.112 102.678 68.5002 102.024 67.7206L100.702 68.9945ZM2.91386 10.0546C2.09318 10.2518 1.24415 10.4559 0.365811 10.6726C0.365811 9.80807 0.36655 8.95306 0.367284 8.10511C0.369565 5.46889 0.371786 2.90098 0.351537 0.327966C0.349753 0.0514193 0.781523 0.0175163 1.67361 0.0175163L4.09556 0.0200269C10.5555 0.0268995 17.0164 0.0337731 23.4744 0.00681165C24.5305 0.00288085 25.0256 0.168304 25.4713 0.317231C25.6325 0.371097 25.7873 0.422804 25.9598 0.46356C26.827 0.670472 27.643 0.891298 28.4602 1.11244L28.4602 1.11245L28.4602 1.11245C29.4469 1.37946 30.4352 1.64692 31.5175 1.8909C32.4417 2.09965 32.6379 2.37977 31.389 2.67059C28.7456 3.28427 26.2366 3.93683 23.7324 4.58814L23.3602 4.68491C21.6602 5.12674 19.9873 5.57518 18.3137 6.02379L18.3134 6.02387C17.2365 6.31253 16.1594 6.60127 15.0745 6.88837C14.2321 7.11327 13.3842 7.33478 12.5379 7.55588L12.5379 7.5559L12.5378 7.55592L12.5378 7.55593C11.0075 7.95573 9.48237 8.35417 8.00386 8.76889C6.44191 9.20653 4.74879 9.6135 2.91389 10.0546L2.91386 10.0546ZM68.1796 9.14634C64.9978 8.32324 61.8458 7.49063 58.7235 6.6485C56.6696 6.09622 54.562 5.55605 52.4534 5.01563C50.5156 4.519 48.577 4.02215 46.6785 3.51549C46.2516 3.36301 45.7851 3.36301 45.3582 3.51549C43.5045 4.04058 41.5358 4.54155 39.5724 5.04118L38.8585 5.22294C38.1382 5.40675 37.3985 5.58584 36.6588 5.76492L36.6587 5.76493C35.3665 6.07779 34.0742 6.39066 32.8851 6.72879C30.6334 7.37109 28.2962 7.9902 25.9143 8.60038C25.6716 9.69765 26.2372 10.7735 27.4576 11.7976C44.1039 11.7334 60.7497 11.64 77.3948 11.5175C75.0917 10.9798 72.9246 10.4035 70.7537 9.82627L70.7533 9.82618L70.7531 9.82612L70.7513 9.82565C69.8975 9.5986 69.0431 9.37141 68.1796 9.14634ZM47.8201 80.9567C51.003 81.7786 54.1551 82.6112 57.2762 83.4545C59.4262 84.0388 61.6357 84.6039 63.8441 85.1687C65.6822 85.6388 67.5195 86.1087 69.3211 86.5893C69.7475 86.7414 70.2133 86.7414 70.6396 86.5893C72.441 86.078 74.3481 85.592 76.2554 85.106L76.2645 85.1037C76.5568 85.0292 76.8492 84.9547 77.1412 84.8801C77.8643 84.6956 78.6069 84.516 79.3494 84.3365L79.3509 84.3362L79.3512 84.3361L79.3513 84.3361L79.3515 84.336C80.64 84.0246 81.9281 83.7132 83.1128 83.376C85.3644 82.7319 87.7017 82.1128 90.0854 81.5044C90.3262 80.4072 89.7606 79.3295 88.5403 78.3072C71.8939 78.3714 55.2482 78.4642 38.603 78.5855C40.8053 79.104 42.8818 79.6543 44.955 80.2037L44.9551 80.2037C45.9069 80.456 46.8579 80.708 47.8201 80.9567ZM76.6144 0.0559265C75.9221 0.415467 74.9476 0.664279 74.0014 0.905868C73.5625 1.01794 73.1296 1.12846 72.7338 1.24776C71.8904 1.49985 70.9855 1.74048 70.0867 1.97947L70.0866 1.9795C69.4396 2.15152 68.7959 2.32269 68.1806 2.49668C66.4767 2.98911 64.4445 3.43872 62.4481 3.87049C62.1158 3.94279 61.9621 4.03129 61.8137 4.11675C61.6545 4.20843 61.5013 4.29662 61.1403 4.35757C59.4399 4.64661 58.5389 4.5574 56.5014 3.93472C54.6196 3.36159 52.5256 2.84124 50.4316 2.32085L50.4315 2.32084C49.6964 2.13817 48.9613 1.95549 48.2353 1.77052C47.5509 1.59681 46.9008 1.41384 46.2505 1.23079C45.1174 0.911865 43.9835 0.592692 42.6651 0.321772C42.4671 0.280736 42.2976 0.189742 42.3083 0.125512C42.3407 0.0155298 42.6562 0.0180964 42.95 0.0204867C43.028 0.021121 43.1044 0.0217429 43.1736 0.0202463H43.8481H75.1193C75.2723 0.0234888 75.4254 0.0279093 75.5895 0.0326516C75.8771 0.0409565 76.1987 0.0502481 76.6144 0.0559265ZM115.933 7.41768C115.903 7.4567 115.874 7.49414 115.874 7.52532C115.892 8.75283 115.897 9.98033 115.901 11.2061C110.088 11.2608 104.274 11.3119 98.4589 11.3595C100.08 10.9456 101.686 10.5251 103.276 10.0981C103.722 9.97895 104.162 9.8566 104.606 9.73346C106.307 9.261 108.051 8.77689 110.277 8.4174C111.604 8.1731 112.911 7.82713 114.185 7.38258C114.589 7.2312 115.017 7.15209 115.45 7.14885C116.129 7.16365 116.025 7.29811 115.933 7.41768ZM20.1583 10.3396L19.1146 10.8053C18.3841 11.128 17.6447 11.4471 16.9054 11.7662C15.2376 12.4858 13.5702 13.2054 12.0065 13.9668C14.8837 13.9549 17.7616 13.9401 20.6401 13.9222C20.1813 12.7874 20.0156 11.5553 20.1583 10.3396ZM96.4329 79.5084L96.433 79.5083C96.5837 79.4402 96.7343 79.3722 96.8876 79.3045C97.6089 78.9861 98.3393 78.6711 99.0699 78.356L99.0701 78.3559C100.746 77.633 102.424 76.9096 103.996 76.143C101.118 76.1572 98.2406 76.1727 95.3621 76.1893C95.8204 77.3243 95.9854 78.5564 95.842 79.772C96.0432 79.6845 96.2381 79.5964 96.4329 79.5084L96.4329 79.5084ZM0.0666708 82.6898L0.0666589 82.6898C-0.0254033 82.8073 -0.128184 82.9385 0.550467 82.9613C0.98256 82.9581 1.41073 82.879 1.81545 82.7276C3.08945 82.283 4.39575 81.9371 5.72279 81.6928C7.96448 81.3294 9.71784 80.8419 11.4302 80.3658C11.8616 80.2459 12.2905 80.1266 12.7239 80.0103C14.313 79.5857 15.9187 79.1658 17.5412 78.7507C11.7259 78.7982 5.91131 78.8494 0.0972881 78.9041C0.102046 80.1304 0.111562 81.3567 0.125835 82.5831C0.125835 82.6143 0.0968302 82.6513 0.0666708 82.6898ZM42.0153 89.2002C41.0628 89.4444 40.0836 89.6954 39.3859 90.0535C39.7724 90.0609 40.0776 90.0689 40.35 90.076L40.3521 90.0761L40.6327 90.0833L40.7348 90.0858L40.8828 90.0891H72.1558H72.8302C72.9029 90.0872 72.9836 90.0877 73.0658 90.0883H73.0659H73.0661C73.3568 90.0903 73.665 90.0924 73.6955 89.9839C73.708 89.9197 73.5385 89.8287 73.3387 89.7876C72.0134 89.5141 70.8745 89.1933 69.7359 88.8727C69.0918 88.6912 68.4478 88.5099 67.7703 88.3371C67.0453 88.1525 66.3114 87.9703 65.5776 87.7881L65.5768 87.7879L65.576 87.7877L65.5752 87.7875L65.5744 87.7873C63.4796 87.2672 61.3859 86.7474 59.5024 86.1729C57.4649 85.552 56.5621 85.4628 54.8636 85.75C54.5034 85.8118 54.3502 85.9001 54.1911 85.9917C54.0421 86.0776 53.888 86.1664 53.554 86.2389C51.5575 86.6707 49.5253 87.1203 47.8215 87.6127C47.2073 87.7864 46.565 87.9573 45.9196 88.129L45.9195 88.129L45.9194 88.129L45.9194 88.129L45.9187 88.1292C45.0196 88.3684 44.1143 88.6093 43.27 88.8616C42.8767 88.9794 42.4487 89.0891 42.0153 89.2002Z" fill="white"/>
</svg>
