<svg width="166" height="68" viewBox="0 0 166 68" fill="none" xmlns="http://www.w3.org/2000/svg">
<path id="Vita" fill-rule="evenodd" clip-rule="evenodd" d="M115.928 17.7661C116.146 17.9742 116.367 18.1842 116.589 18.3976C116.652 17.6341 116.768 16.8759 116.936 16.1286C116.955 16.0482 116.911 16.0045 116.856 15.9517C116.616 15.7246 116.378 15.4957 116.14 15.2667L116.14 15.2665L116.139 15.2656C115.727 14.8697 115.315 14.4737 114.895 14.0869C113.603 12.9079 112.804 11.2851 112.656 9.54258C112.508 7.80002 113.023 6.06587 114.098 4.68633C115.173 3.3068 116.728 2.38338 118.454 2.10042C120.18 1.81747 121.949 2.1958 123.408 3.15989C124.008 3.57954 124.565 4.0564 125.073 4.58376C125.163 4.67332 125.215 4.71696 125.326 4.59754C125.707 4.18875 126.088 3.78914 126.474 3.39643C126.573 3.29078 126.559 3.24256 126.474 3.16677C126.355 3.05752 126.237 2.94621 126.12 2.83472L126.12 2.83441L126.119 2.83423C126.022 2.74198 125.925 2.64962 125.826 2.55819C123.162 0.103169 120.064 -0.627135 116.656 0.551C113.326 1.70617 111.363 4.1589 110.8 7.64278C110.382 10.1988 111.071 12.5252 112.678 14.5623C113.047 15.0302 113.481 15.4349 113.916 15.84L113.916 15.8401C114.085 15.9977 114.254 16.1554 114.419 16.3169C114.913 16.7995 115.414 17.2764 115.926 17.7643L115.927 17.7657L115.928 17.7661ZM21.135 1.04957L22.0077 3.01772L32.6546 27.3612L33.0335 28.2569H35.0889L35.4678 27.3612L46.032 3.01772L46.9047 1.04957H43.6068L43.2279 1.94522L34.0577 23.0736L24.8118 1.94522L24.4329 1.04957H21.135ZM140.168 59.2511L139.775 59.9722C139.418 60.4948 139.035 60.9992 138.627 61.4833C136.905 63.3849 134.822 64.3908 132.096 64.3908C127 64.4184 123.052 59.8252 123.052 53.6245C123.089 47.4537 127 42.8606 132.132 42.8606C134.643 42.895 136.76 43.8642 138.519 45.8024C138.941 46.265 139.313 46.7698 139.631 47.309L140.026 48.0485H143.326L142.143 45.9311C141.729 45.1953 141.232 44.5095 140.662 43.8871V43.8504C138.473 41.4826 135.244 39.9761 132.123 39.9761C125.709 40.0105 120.181 46.3261 120.181 53.6107C120.218 60.9322 125.665 67.2477 132.096 67.2477C133.737 67.2508 135.361 66.9042 136.858 66.231C138.355 65.5578 139.692 64.5735 140.779 63.3436C141.333 62.7574 141.815 62.1066 142.214 61.4053L143.507 59.2511H140.168ZM35.218 40.8442L45.9567 65.1831L46.8156 67.188H43.7015L43.3088 66.3291L41.0214 61.1389L39.7606 58.2751L33.8952 44.9596L28.0275 58.2751L26.7667 61.1389L24.4793 66.3291L24.0866 67.188H20.9724L21.8314 65.1831L32.5701 40.8442L32.9628 39.9853H34.8253L35.218 40.8442ZM18.8203 59.7951C18.841 57.1518 17.277 54.683 15.0907 53.3211C16.9188 51.9501 18.2485 49.9107 18.2485 47.6762C18.2806 43.5906 13.846 40.0401 10.0819 40.0401L1.37794 40.0768H0.0344505V41.5099L0 65.8534V67.2888H11.4254C15.3249 67.3232 18.8203 63.7383 18.8203 59.7951ZM10.0819 52.2302L2.70305 52.2601L2.68927 42.9085H10.0819C13.0054 42.9453 15.5592 44.9892 15.5592 47.6762C15.5936 50.2942 12.971 52.2302 10.0819 52.2302ZM2.71683 64.4571L2.70305 55.0986H11.4208C14.2433 55.1354 16.1264 56.9979 16.1264 59.7951C16.1609 62.5556 14.2111 64.4204 11.4208 64.4204L2.71683 64.4571ZM49.5921 41.4686V41.4663V40.0401H52.348V64.3308H65.4384V67.1877H49.5921V41.4686ZM82.3983 40.8442L93.137 65.1831L93.9959 67.188H90.8818L90.4868 66.3291L88.2017 61.1389L86.9386 58.2751L81.0732 44.9596L75.2077 58.2751L73.9469 61.1389L71.6596 66.3291L71.2645 67.188H68.1504L69.0116 65.1831L79.748 40.8442L80.143 39.9853H82.0033L82.3983 40.8442ZM99.9323 65.7573V67.188H97.0685V39.9853H99.2525L99.682 40.5939L114.215 61.2468L114.251 41.4161V39.9853H117.111V41.4161L117.076 65.7596V67.1903H114.892L114.463 66.5817L99.9323 45.9311V65.7573ZM164.156 39.9853H165.589V42.8491H149.123V52.1548H166V54.8509L149.123 55.0186V64.3242H165.589V67.188H146.259V39.9853H164.156ZM50.9539 2.48262V1.04957H53.8177V28.2477H50.9539V2.48262ZM79.036 1.04957H70.123H58.2751V3.90419H67.2615V28.2477H70.123V3.90419H79.036V1.04957ZM102.822 26.2497L92.0829 1.90848L91.6879 1.04957H89.8277L89.4327 1.90848L78.6963 26.2497L77.8351 28.2546H80.9492L81.3442 27.3957L83.6293 22.2055L84.8924 19.3417L90.7578 6.02621L96.6232 19.3417L97.8863 22.2055L100.171 27.3957L100.566 28.2546H103.681L102.822 26.2497ZM140.944 18.3721C140.88 17.6123 140.755 16.8589 140.57 16.1192C140.543 16.0089 140.603 15.957 140.662 15.9055L140.68 15.8895L142.747 13.8662C143.88 12.7887 144.581 11.3355 144.72 9.77836C144.989 7.01101 144.008 4.77416 141.712 3.20331C140.437 2.33618 138.909 1.92149 137.371 2.02557C135.833 2.12966 134.374 2.74651 133.228 3.77745C132.909 4.06223 132.601 4.35849 132.293 4.65704C132.215 4.73053 132.167 4.76727 132.064 4.66852C131.678 4.26203 131.285 3.86013 130.892 3.46283C130.821 3.38934 130.803 3.3434 130.892 3.26073C131.885 2.2755 132.929 1.37065 134.232 0.801108C135.466 0.254358 136.808 -0.00436416 138.157 0.0445219C139.506 0.0934079 140.827 0.448621 142.018 1.08327C143.209 1.71792 144.241 2.61536 145.034 3.70762C145.827 4.79988 146.361 6.05832 146.596 7.38764C147.147 10.5224 146.22 13.237 143.93 15.4692L141.225 18.108L140.944 18.3721ZM134.861 10.9337C136.07 12.2022 136.863 13.8094 137.134 15.5406C137.206 16.019 137.247 16.5015 137.256 16.9852C137.277 18.6708 136.707 20.1636 135.86 21.5783C134.47 23.8606 132.651 25.8511 130.502 27.4391C129.776 27.988 128.984 28.3072 128.054 28.197C127.431 28.1152 126.843 27.8615 126.357 27.4644C124.398 25.9349 122.714 24.1596 121.479 21.9825C121.428 21.893 121.377 21.8036 121.326 21.7142C120.828 20.8427 120.33 19.9718 120.057 18.9969C119.515 17.0426 119.761 15.1571 120.569 13.3198C121.006 12.3379 121.621 11.4455 122.384 10.688C124.374 8.6762 126.364 6.66212 128.355 4.64574C128.481 4.51483 128.534 4.50335 128.669 4.64574C129.268 5.26314 129.873 5.87512 130.477 6.48689C130.752 6.76488 131.027 7.04283 131.301 7.32123C131.652 7.67624 132.005 8.03024 132.357 8.38436C133.198 9.22836 134.039 10.0731 134.861 10.9337ZM129.801 24.6763C131.361 23.5253 132.682 22.0814 133.689 20.4254H133.696C134.312 19.3965 134.723 18.3149 134.702 17.0977C134.695 16.747 134.666 16.3972 134.613 16.0505C134.416 14.794 133.841 13.6274 132.964 12.7067C132.362 12.0775 131.748 11.461 131.133 10.8441C130.882 10.5918 130.631 10.3395 130.38 10.0863C130.168 9.8701 129.955 9.65443 129.742 9.43876C129.317 9.00834 128.892 8.57791 128.472 8.14341C128.373 8.04236 128.334 8.04925 128.242 8.14341C126.804 9.60555 125.362 11.0669 123.915 12.5275C123.362 13.0749 122.913 13.7195 122.593 14.4291C121.982 15.7145 121.851 17.1756 122.223 18.5491C122.423 19.2811 122.796 19.9263 123.166 20.5651C123.195 20.6158 123.225 20.6664 123.254 20.7171C124.158 22.2645 125.361 23.6166 126.793 24.6947C127.146 24.9826 127.572 25.167 128.024 25.2275C128.342 25.2591 128.663 25.2267 128.968 25.132C129.274 25.0373 129.557 24.8824 129.801 24.6763Z" fill="white"/>
</svg>
